<svg id="svg" version="1.1" xmlns="http://www.w3.org/2000/svg" xmlns:xlink="http://www.w3.org/1999/xlink" width="400"
     height="400" viewBox="0, 0, 400,400">
    <g id="svgg">
        <path id="path0"
              d="M123.523 91.595 C 120.291 92.215,117.231 93.014,116.723 93.371 C 116.215 93.728,115.149 94.196,114.354 94.411 C 113.558 94.626,112.229 95.341,111.399 96.001 C 110.569 96.660,109.723 97.200,109.519 97.200 C 108.814 97.200,101.210 104.702,101.203 105.404 C 101.202 105.626,100.840 106.032,100.400 106.307 C 99.960 106.582,99.600 107.050,99.600 107.348 C 99.600 107.645,99.121 108.588,98.537 109.444 C 97.952 110.300,97.247 111.741,96.971 112.647 C 96.696 113.553,96.098 115.025,95.643 115.917 C 94.115 118.911,94.001 124.816,94.015 200.400 C 94.029 276.966,94.126 281.769,95.726 285.016 C 96.264 286.107,96.821 287.657,96.963 288.460 C 97.105 289.263,97.497 290.148,97.834 290.428 C 98.171 290.708,98.684 291.506,98.975 292.201 C 99.529 293.527,101.859 296.776,103.336 298.281 C 103.811 298.766,104.405 299.396,104.656 299.681 C 105.989 301.197,111.773 305.600,112.432 305.600 C 112.666 305.600,113.610 306.036,114.529 306.569 C 115.448 307.103,117.190 307.811,118.400 308.143 C 119.610 308.475,121.410 309.074,122.400 309.473 C 124.118 310.167,127.657 310.200,199.800 310.193 L 275.400 310.185 279.167 308.893 C 281.239 308.182,283.149 307.600,283.413 307.600 C 283.676 307.600,284.321 307.269,284.846 306.864 C 285.371 306.459,286.359 305.938,287.041 305.705 C 290.715 304.454,298.149 297.173,300.831 292.200 C 301.305 291.320,301.921 290.330,302.200 290.000 C 302.479 289.670,303.015 288.320,303.391 287.000 C 303.768 285.680,304.218 284.420,304.391 284.200 C 305.532 282.753,305.600 278.065,305.600 200.267 C 305.600 132.416,305.517 120.688,305.024 118.987 C 304.141 115.943,302.655 111.913,302.006 110.800 C 301.685 110.250,301.058 109.148,300.611 108.352 C 297.279 102.406,289.815 95.643,285.218 94.405 C 284.379 94.179,283.478 93.735,283.216 93.419 C 282.708 92.807,281.306 92.470,274.000 91.205 C 269.521 90.429,267.565 90.409,199.400 90.438 L 129.400 90.467 123.523 91.595 M148.438 115.408 C 151.306 116.038,151.390 116.518,151.489 132.800 C 151.538 140.830,151.583 147.490,151.589 147.600 C 151.606 147.904,159.101 147.832,159.408 147.525 C 159.556 147.377,159.651 140.893,159.621 133.115 L 159.565 118.974 160.682 117.517 C 162.360 115.329,162.920 115.200,170.759 115.200 C 182.589 115.200,181.778 113.920,181.876 132.743 C 181.918 140.741,182.059 147.392,182.190 147.523 C 182.565 147.898,189.649 147.844,189.884 147.464 C 190.000 147.277,190.063 140.737,190.025 132.931 L 189.955 118.739 191.725 116.970 L 193.495 115.200 201.088 115.200 C 213.262 115.200,212.356 113.809,212.421 132.596 C 212.448 140.472,212.546 147.115,212.639 147.358 C 212.822 147.834,220.138 147.996,220.599 147.534 C 220.742 147.391,220.839 140.958,220.815 133.237 C 220.770 118.534,220.770 118.537,222.646 116.513 L 223.677 115.400 232.031 115.400 L 240.385 115.400 241.692 116.708 L 243.000 118.016 243.084 132.508 C 243.130 140.479,243.175 147.189,243.184 147.419 C 243.201 147.859,250.583 147.951,251.017 147.517 C 251.144 147.389,251.282 140.711,251.324 132.675 L 251.400 118.065 252.400 116.996 C 254.092 115.187,254.292 115.164,268.315 115.151 C 283.014 115.137,283.875 115.219,284.429 116.677 C 284.651 117.259,284.800 140.665,284.800 174.797 C 284.800 237.050,284.941 233.194,282.671 233.204 C 282.192 233.206,271.580 233.230,259.089 233.259 C 246.220 233.288,236.283 233.466,236.158 233.668 C 236.036 233.865,235.958 241.911,235.983 251.549 C 236.033 270.048,235.913 272.204,234.806 272.797 C 233.440 273.528,165.601 273.372,164.864 272.636 C 164.293 272.064,164.238 269.987,164.349 253.044 C 164.450 237.532,164.375 234.029,163.936 233.746 C 163.641 233.556,153.860 233.363,142.200 233.317 C 118.625 233.226,118.950 233.247,118.393 231.783 C 117.881 230.435,117.853 118.439,118.365 117.093 C 119.119 115.108,120.016 114.994,134.179 115.078 C 141.388 115.120,147.805 115.269,148.438 115.408 "
              stroke="none" fill="#ecf1ee" fill-rule="evenodd"></path>
        <path id="path1"
              d="M188.657 4.676 C 188.615 4.718,187.265 4.791,185.657 4.838 C 183.769 4.893,182.534 5.124,182.168 5.489 C 181.023 6.634,177.327 7.035,166.529 7.188 C 166.049 7.194,165.388 7.469,165.059 7.798 C 164.020 8.837,162.315 9.254,158.403 9.428 C 155.067 9.576,154.526 9.703,153.942 10.477 C 153.368 11.238,152.777 11.388,149.606 11.579 C 146.909 11.742,145.811 11.969,145.467 12.435 C 144.643 13.553,143.313 14.000,140.807 14.000 C 138.690 14.000,138.233 14.139,137.402 15.035 C 136.748 15.742,135.896 16.131,134.722 16.260 C 131.883 16.573,131.200 16.788,131.200 17.368 C 131.200 18.098,129.113 18.800,126.940 18.800 C 125.729 18.800,125.200 18.967,125.200 19.351 C 125.200 20.434,123.730 21.097,121.164 21.170 C 120.464 21.190,119.981 21.524,119.673 22.200 C 119.310 22.997,118.925 23.200,117.778 23.200 C 116.712 23.200,116.027 23.511,115.138 24.400 C 114.478 25.060,113.547 25.602,113.069 25.605 C 111.515 25.615,110.431 26.071,110.195 26.815 C 110.063 27.232,109.414 27.655,108.682 27.802 C 106.388 28.263,106.127 28.402,105.669 29.408 C 105.299 30.221,104.931 30.400,103.630 30.400 C 102.296 30.400,101.960 30.574,101.519 31.495 C 101.230 32.097,100.635 32.644,100.197 32.711 C 98.193 33.014,97.600 33.254,97.600 33.764 C 97.600 34.066,96.909 34.589,96.065 34.927 C 95.221 35.265,94.227 36.005,93.856 36.571 C 93.353 37.338,92.840 37.600,91.837 37.600 C 90.827 37.600,90.441 37.800,90.283 38.405 C 90.167 38.848,89.439 39.475,88.665 39.799 C 87.891 40.122,87.141 40.757,86.997 41.210 C 86.837 41.713,86.261 42.128,85.515 42.277 C 84.817 42.417,84.213 42.828,84.106 43.238 C 84.002 43.634,83.385 44.072,82.723 44.217 C 81.999 44.376,80.534 45.488,79.005 47.040 C 77.617 48.448,76.304 49.600,76.087 49.600 C 75.870 49.600,75.397 50.050,75.037 50.600 C 74.676 51.150,74.111 51.600,73.781 51.600 C 73.451 51.600,73.008 52.053,72.797 52.607 C 72.587 53.161,71.972 53.783,71.431 53.988 C 70.891 54.194,70.251 54.730,70.010 55.181 C 69.769 55.631,69.360 56.000,69.101 56.000 C 68.581 56.000,68.392 56.173,62.472 62.081 C 56.519 68.022,56.000 68.587,56.000 69.129 C 56.000 69.397,55.550 69.822,55.000 70.073 C 54.450 70.323,54.000 70.797,54.000 71.124 C 54.000 71.452,53.010 72.664,51.800 73.817 C 50.590 74.970,49.600 76.108,49.600 76.345 C 49.600 76.582,49.060 77.175,48.400 77.663 C 47.740 78.151,47.200 78.793,47.200 79.089 C 47.200 79.385,46.570 80.257,45.800 81.027 C 45.030 81.797,44.400 82.785,44.400 83.222 C 44.400 83.682,43.979 84.209,43.400 84.473 C 42.850 84.723,42.400 85.230,42.400 85.598 C 42.400 85.966,41.854 86.754,41.187 87.348 C 40.520 87.943,39.865 88.977,39.731 89.646 C 39.575 90.423,39.147 90.992,38.544 91.221 C 37.969 91.440,37.600 91.906,37.600 92.413 C 37.600 92.870,37.079 93.730,36.443 94.323 C 35.807 94.915,35.162 95.986,35.010 96.703 C 34.859 97.420,34.396 98.188,33.981 98.410 C 33.566 98.632,33.039 99.511,32.810 100.363 C 32.570 101.254,31.969 102.190,31.396 102.566 C 30.707 103.017,30.400 103.582,30.400 104.400 C 30.400 105.205,30.095 105.782,29.441 106.210 C 28.851 106.597,28.375 107.405,28.205 108.312 C 27.846 110.227,27.309 111.200,26.610 111.200 C 26.251 111.200,25.951 111.854,25.776 113.020 C 25.515 114.761,24.765 116.000,23.971 116.000 C 23.767 116.000,23.600 116.528,23.600 117.174 C 23.600 118.755,22.921 120.440,22.035 121.061 C 21.575 121.382,21.228 122.271,21.093 123.471 C 20.938 124.845,20.604 125.598,19.886 126.186 C 19.088 126.840,18.858 127.463,18.709 129.360 C 18.554 131.340,18.353 131.844,17.462 132.493 C 16.565 133.147,16.400 133.568,16.400 135.207 C 16.400 137.662,15.873 139.059,14.823 139.393 C 14.089 139.626,14.000 139.978,14.000 142.631 C 14.000 145.392,13.913 145.698,12.800 146.863 C 11.694 148.020,11.600 148.344,11.600 151.000 C 11.600 154.201,11.014 156.400,10.161 156.400 C 9.852 156.400,9.580 156.805,9.556 157.300 C 9.532 157.795,9.445 159.790,9.363 161.732 C 9.185 165.931,8.601 168.400,7.785 168.400 C 7.399 168.400,7.188 168.843,7.164 169.700 C 7.145 170.415,7.078 173.430,7.017 176.400 C 6.849 184.561,6.058 190.330,5.181 189.788 C 4.871 189.597,4.586 191.346,4.743 192.472 C 4.764 192.622,4.797 196.804,4.815 201.766 C 4.844 209.426,4.942 210.840,5.462 211.131 C 6.282 211.590,6.782 215.977,7.019 224.800 C 7.171 230.460,7.324 231.887,7.819 232.255 C 8.720 232.926,9.123 234.736,9.434 239.520 C 9.680 243.307,9.820 243.901,10.656 244.681 C 11.519 245.487,11.600 245.885,11.600 249.348 C 11.600 253.003,11.637 253.160,12.684 253.923 C 13.664 254.637,13.783 254.998,13.915 257.657 C 14.041 260.212,14.193 260.711,15.063 261.441 C 15.884 262.130,16.103 262.745,16.273 264.841 C 16.443 266.933,16.663 267.555,17.482 268.248 C 18.309 268.949,18.521 269.560,18.697 271.748 C 18.836 273.487,19.081 274.400,19.409 274.400 C 20.256 274.400,21.200 276.290,21.200 277.986 C 21.200 278.874,21.367 279.600,21.571 279.600 C 22.366 279.600,23.115 280.840,23.377 282.588 C 23.569 283.868,23.930 284.598,24.583 285.026 C 25.224 285.446,25.596 286.181,25.777 287.385 C 25.962 288.620,26.327 289.322,27.020 289.776 C 27.612 290.164,28.000 290.801,28.000 291.383 C 28.000 292.824,28.704 294.400,29.347 294.400 C 29.997 294.400,30.400 295.244,30.400 296.604 C 30.400 297.483,30.633 297.811,32.186 299.116 C 32.524 299.399,32.800 300.068,32.800 300.602 C 32.800 301.141,33.334 302.118,34.000 302.800 C 34.660 303.475,35.200 304.341,35.200 304.725 C 35.200 305.108,35.740 305.896,36.400 306.475 C 37.158 307.140,37.600 307.912,37.600 308.572 C 37.600 309.305,37.906 309.757,38.625 310.084 C 39.262 310.374,39.738 310.990,39.882 311.710 C 40.009 312.347,40.403 312.978,40.757 313.112 C 41.755 313.490,42.400 314.270,42.400 315.099 C 42.400 315.515,42.845 316.243,43.389 316.716 C 43.934 317.189,44.487 318.009,44.620 318.538 C 44.753 319.067,45.293 319.696,45.820 319.936 C 46.347 320.176,46.891 320.822,47.029 321.372 C 47.167 321.922,47.637 322.485,48.074 322.623 C 48.511 322.762,49.048 323.391,49.267 324.021 C 49.487 324.652,50.012 325.277,50.433 325.411 C 50.855 325.544,51.200 325.906,51.200 326.213 C 51.200 326.521,51.724 327.364,52.364 328.087 C 53.004 328.809,54.311 330.300,55.268 331.400 C 56.226 332.500,58.042 334.447,59.305 335.726 C 60.567 337.006,61.600 338.221,61.600 338.426 C 61.600 338.632,61.878 338.800,62.219 338.800 C 62.559 338.800,63.144 339.339,63.519 339.997 C 63.893 340.656,64.355 341.196,64.545 341.197 C 64.735 341.199,66.003 342.325,67.363 343.700 C 68.724 345.075,70.607 346.830,71.549 347.600 C 72.491 348.370,73.724 349.405,74.289 349.900 C 74.854 350.395,75.464 350.800,75.645 350.800 C 75.825 350.800,76.525 351.340,77.200 352.000 C 77.875 352.660,78.679 353.200,78.987 353.200 C 79.294 353.200,79.661 353.562,79.801 354.004 C 79.942 354.447,80.571 355.075,81.200 355.400 C 81.829 355.725,82.444 356.308,82.567 356.696 C 82.690 357.083,83.378 357.656,84.095 357.968 C 84.813 358.280,85.796 358.955,86.281 359.468 C 86.765 359.980,87.534 360.400,87.989 360.400 C 88.468 360.400,88.996 360.793,89.242 361.332 C 89.475 361.844,90.281 362.486,91.033 362.757 C 91.784 363.029,92.586 363.600,92.814 364.026 C 93.083 364.528,93.651 364.800,94.433 364.800 C 95.352 364.800,95.798 365.083,96.319 365.998 C 96.783 366.815,97.421 367.276,98.323 367.447 C 99.079 367.590,99.913 368.105,100.269 368.649 C 100.647 369.226,101.281 369.600,101.882 369.600 C 102.482 369.600,103.288 370.073,103.925 370.800 C 104.636 371.610,105.351 372.000,106.125 372.000 C 106.899 372.000,107.615 372.390,108.325 373.200 C 109.032 374.005,109.752 374.400,110.515 374.400 C 111.926 374.400,113.200 375.051,113.200 375.771 C 113.200 376.452,114.079 376.800,115.799 376.800 C 116.786 376.800,117.337 377.080,117.915 377.874 C 118.423 378.570,119.118 378.976,119.897 379.030 C 121.776 379.160,122.739 379.579,122.992 380.375 C 123.173 380.945,123.802 381.171,125.802 381.385 C 127.856 381.605,128.522 381.853,129.089 382.609 C 129.612 383.306,130.327 383.616,131.794 383.781 C 134.545 384.091,135.121 384.320,135.406 385.220 C 135.609 385.859,136.023 386.000,137.699 386.000 C 140.185 386.000,142.281 386.703,142.520 387.617 C 142.665 388.169,143.339 388.328,146.152 388.476 C 149.225 388.637,149.731 388.776,150.725 389.728 C 151.734 390.695,152.137 390.800,154.825 390.800 C 158.312 390.800,160.012 391.212,161.128 392.328 C 161.845 393.045,162.483 393.139,166.836 393.172 C 171.577 393.208,174.989 393.770,174.571 394.448 C 174.073 395.252,178.002 395.400,199.832 395.400 L 223.065 395.400 225.032 394.334 C 226.848 393.351,227.441 393.257,232.696 393.115 C 237.943 392.973,238.456 392.891,239.211 392.080 C 240.216 391.001,239.505 391.175,244.270 390.845 C 247.932 390.591,248.420 390.464,249.135 389.581 C 249.846 388.703,250.289 388.585,253.371 388.459 C 256.163 388.344,256.910 388.178,257.331 387.578 C 258.047 386.555,259.694 386.000,262.012 386.000 C 263.526 386.000,264.064 385.828,264.377 385.242 C 264.863 384.335,266.798 383.600,268.702 383.600 C 269.685 383.600,270.303 383.323,270.840 382.640 C 271.429 381.892,272.139 381.616,274.047 381.395 C 275.896 381.180,276.544 380.938,276.682 380.409 C 276.864 379.712,279.142 378.800,280.700 378.800 C 281.145 378.800,281.803 378.350,282.163 377.800 C 282.677 377.016,283.156 376.800,284.382 376.800 C 285.663 376.800,286.100 376.583,286.800 375.600 C 287.503 374.613,287.935 374.400,289.237 374.400 C 290.533 374.400,290.885 374.229,291.179 373.455 C 291.587 372.383,292.340 372.000,294.043 372.000 C 294.923 372.000,295.313 371.754,295.592 371.022 C 295.856 370.327,296.382 369.965,297.405 369.773 C 298.251 369.614,299.092 369.127,299.442 368.592 C 299.781 368.075,300.628 367.571,301.403 367.426 C 302.274 367.262,303.072 366.742,303.611 365.985 C 304.204 365.152,304.789 364.800,305.581 364.800 C 306.356 364.800,306.769 364.560,306.908 364.030 C 307.034 363.550,307.728 363.074,308.747 362.769 C 309.734 362.473,310.483 361.970,310.631 361.502 C 310.766 361.076,311.490 360.471,312.239 360.158 C 312.987 359.845,313.600 359.420,313.600 359.213 C 313.600 359.007,314.410 358.479,315.400 358.041 C 316.390 357.603,317.200 357.049,317.200 356.809 C 317.200 356.569,317.822 356.006,318.582 355.557 C 319.343 355.109,320.062 354.435,320.181 354.059 C 320.300 353.683,320.938 353.172,321.599 352.923 C 322.260 352.673,322.800 352.196,322.800 351.862 C 322.800 351.527,323.155 351.141,323.590 351.003 C 324.024 350.865,324.699 350.358,325.090 349.875 C 325.480 349.392,326.295 348.776,326.900 348.507 C 327.505 348.237,328.000 347.848,328.000 347.641 C 328.000 347.434,328.643 346.868,329.428 346.383 C 331.029 345.393,342.229 334.314,343.911 332.056 C 344.507 331.255,345.198 330.469,345.445 330.309 C 345.693 330.150,346.121 329.475,346.396 328.809 C 346.672 328.144,347.155 327.600,347.469 327.600 C 347.784 327.600,348.227 327.067,348.454 326.416 C 348.681 325.765,349.212 325.123,349.633 324.989 C 350.055 324.856,350.400 324.573,350.400 324.362 C 350.400 324.150,350.937 323.397,351.592 322.689 C 354.741 319.286,355.532 318.238,355.741 317.194 C 355.873 316.536,356.308 315.956,356.784 315.805 C 357.233 315.663,357.600 315.204,357.600 314.785 C 357.600 314.366,358.132 313.631,358.782 313.150 C 359.432 312.670,360.077 311.758,360.217 311.125 C 360.356 310.491,360.904 309.688,361.435 309.340 C 361.966 308.993,362.400 308.359,362.400 307.931 C 362.400 307.504,362.937 306.665,363.592 306.066 C 364.248 305.467,364.903 304.385,365.048 303.661 C 365.192 302.938,365.717 302.079,366.215 301.754 C 366.714 301.427,367.229 300.571,367.366 299.842 C 367.530 298.967,367.948 298.370,368.607 298.070 C 369.385 297.715,369.600 297.319,369.600 296.236 C 369.600 295.158,369.863 294.667,370.800 294.000 C 371.726 293.341,372.000 292.838,372.000 291.801 C 372.000 290.544,372.201 290.216,373.786 288.884 C 374.124 288.601,374.400 287.737,374.400 286.965 C 374.400 285.981,374.700 285.284,375.402 284.633 C 376.036 284.045,376.538 282.988,376.769 281.757 C 377.001 280.511,377.433 279.610,377.966 279.256 C 378.472 278.920,378.800 278.273,378.800 277.611 C 378.800 276.009,379.582 274.038,380.389 273.606 C 380.884 273.341,381.174 272.517,381.365 270.829 C 381.578 268.949,381.849 268.262,382.618 267.657 C 383.358 267.075,383.600 266.504,383.600 265.340 C 383.600 263.138,384.244 261.185,385.187 260.524 C 385.840 260.066,386.000 259.513,386.000 257.706 C 386.000 255.008,386.694 252.888,387.680 252.575 C 388.291 252.381,388.400 251.881,388.400 249.270 C 388.400 245.677,388.862 243.774,389.989 242.724 C 390.676 242.084,390.800 241.466,390.802 238.684 C 390.805 234.527,391.382 230.961,392.180 230.163 C 394.159 228.183,394.310 172.023,392.340 170.643 C 391.385 169.974,390.800 166.846,390.800 162.407 C 390.800 159.435,390.683 158.818,390.002 158.202 C 388.915 157.218,388.405 155.150,388.402 151.714 C 388.400 149.260,388.283 148.765,387.618 148.409 C 386.655 147.894,386.005 145.683,386.002 142.914 C 386.000 141.254,385.840 140.743,385.218 140.409 C 384.349 139.945,383.606 137.738,383.602 135.615 C 383.601 134.626,383.315 133.997,382.605 133.415 C 381.832 132.782,381.550 132.077,381.345 130.258 C 381.159 128.614,380.814 127.650,380.186 127.023 C 379.616 126.453,379.191 125.387,379.011 124.080 C 378.803 122.567,378.530 121.968,377.966 121.789 C 377.220 121.552,377.094 121.237,376.625 118.445 C 376.500 117.700,375.948 116.673,375.399 116.164 C 374.850 115.655,374.398 114.825,374.395 114.319 C 374.385 112.729,373.951 111.681,373.224 111.490 C 372.783 111.375,372.350 110.623,372.058 109.466 C 371.785 108.379,371.270 107.451,370.800 107.200 C 370.298 106.931,369.910 106.177,369.746 105.153 C 369.563 104.005,369.221 103.410,368.579 103.118 C 367.978 102.844,367.581 102.213,367.404 101.252 C 367.248 100.406,366.649 99.350,365.968 98.723 C 365.268 98.077,364.800 97.239,364.800 96.632 C 364.800 96.017,364.440 95.382,363.884 95.018 C 363.379 94.688,362.745 93.803,362.474 93.053 C 362.200 92.297,361.627 91.596,361.190 91.481 C 360.660 91.343,360.400 90.934,360.400 90.238 C 360.400 89.603,359.858 88.627,359.000 87.718 C 358.230 86.901,357.600 86.022,357.600 85.763 C 357.600 85.504,357.150 84.997,356.600 84.637 C 356.050 84.276,355.600 83.717,355.600 83.394 C 355.600 83.071,355.220 82.580,354.756 82.303 C 354.291 82.027,353.578 81.035,353.170 80.100 C 352.762 79.165,352.270 78.400,352.077 78.400 C 351.884 78.400,351.394 77.784,350.988 77.030 C 350.583 76.277,349.834 75.471,349.325 75.239 C 348.816 75.007,348.400 74.548,348.400 74.219 C 348.400 73.890,347.881 73.352,347.247 73.024 C 346.613 72.696,345.979 71.972,345.839 71.414 C 345.699 70.856,345.323 70.400,345.003 70.400 C 344.682 70.400,344.153 69.882,343.825 69.248 C 343.498 68.615,342.950 67.990,342.609 67.859 C 342.267 67.728,341.815 67.166,341.604 66.610 C 341.393 66.055,340.990 65.599,340.710 65.597 C 340.429 65.596,339.893 65.056,339.519 64.397 C 339.144 63.739,338.563 63.200,338.229 63.200 C 337.894 63.200,337.348 62.673,337.015 62.028 C 336.681 61.384,336.056 60.745,335.625 60.608 C 335.194 60.471,334.726 59.998,334.586 59.557 C 334.446 59.115,333.897 58.589,333.366 58.387 C 332.835 58.185,332.400 57.767,332.400 57.458 C 332.400 57.150,331.883 56.683,331.252 56.421 C 330.620 56.160,329.904 55.508,329.660 54.973 C 329.417 54.438,328.956 54.000,328.636 54.000 C 328.316 54.000,327.670 53.460,327.200 52.800 C 326.730 52.140,326.083 51.600,325.763 51.600 C 325.442 51.600,325.009 51.150,324.800 50.600 C 324.591 50.050,324.190 49.600,323.910 49.600 C 323.630 49.600,322.860 49.058,322.200 48.395 C 319.974 46.160,317.707 44.400,317.055 44.400 C 316.698 44.400,316.180 44.030,315.903 43.577 C 315.627 43.125,314.833 42.482,314.140 42.150 C 313.446 41.818,312.798 41.235,312.698 40.854 C 312.596 40.462,311.809 39.950,310.883 39.672 C 309.883 39.372,309.151 38.875,308.997 38.391 C 308.836 37.883,308.391 37.600,307.754 37.600 C 307.076 37.600,306.549 37.227,306.085 36.419 C 305.592 35.561,305.003 35.169,303.929 34.988 C 302.990 34.829,302.220 34.385,301.817 33.769 C 301.467 33.236,300.816 32.800,300.368 32.800 C 299.921 32.800,299.070 32.273,298.477 31.629 C 297.780 30.870,296.921 30.412,296.040 30.329 C 295.187 30.248,294.517 29.902,294.240 29.400 C 293.613 28.260,293.168 28.013,291.733 28.006 C 290.827 28.002,290.246 27.697,289.691 26.934 C 289.125 26.158,288.437 25.805,287.157 25.634 C 285.866 25.462,285.298 25.168,285.016 24.525 C 284.610 23.599,283.703 23.214,281.909 23.205 C 281.191 23.202,280.595 22.858,280.163 22.200 C 279.681 21.464,279.156 21.200,278.173 21.200 C 276.482 21.200,274.879 20.480,274.598 19.594 C 274.435 19.081,273.762 18.853,271.908 18.685 C 269.851 18.499,269.308 18.287,268.684 17.430 C 268.107 16.638,267.585 16.400,266.426 16.400 C 264.499 16.400,262.400 15.672,262.400 15.004 C 262.400 14.247,261.454 14.000,258.549 14.000 C 256.275 14.000,255.834 13.870,254.887 12.923 C 253.935 11.971,253.401 11.816,250.300 11.593 C 247.409 11.384,246.647 11.186,245.979 10.470 C 245.533 9.991,244.861 9.598,244.484 9.595 C 238.872 9.550,235.038 8.878,234.250 7.801 C 233.884 7.300,232.897 7.164,229.395 7.132 C 223.080 7.074,219.403 6.591,217.818 5.611 C 216.664 4.898,189.310 4.021,188.657 4.676 M275.871 89.233 C 277.592 89.471,279.540 89.987,280.200 90.381 C 280.860 90.774,282.101 91.203,282.957 91.332 C 283.814 91.462,284.894 91.904,285.357 92.314 C 285.821 92.724,286.976 93.304,287.925 93.602 C 288.873 93.900,289.818 94.460,290.024 94.845 C 290.230 95.230,290.802 95.674,291.295 95.830 C 292.681 96.270,298.153 101.408,299.510 103.544 C 299.879 104.125,300.412 104.745,300.694 104.922 C 300.977 105.099,301.465 105.860,301.779 106.613 C 302.094 107.365,302.705 108.361,303.138 108.825 C 303.570 109.289,304.044 110.308,304.190 111.089 C 304.337 111.870,304.815 112.993,305.252 113.585 C 305.703 114.195,306.228 115.863,306.462 117.431 C 306.690 118.954,307.130 121.317,307.438 122.682 C 308.284 126.421,308.276 274.833,307.430 278.518 C 307.116 279.883,306.652 282.295,306.398 283.878 C 306.143 285.461,305.688 286.961,305.386 287.211 C 305.084 287.462,304.563 288.610,304.228 289.763 C 303.893 290.916,303.254 292.189,302.809 292.592 C 302.364 292.994,302.000 293.549,302.000 293.824 C 302.000 294.349,299.959 297.094,298.301 298.800 C 297.766 299.350,297.113 300.205,296.850 300.700 C 296.587 301.195,296.166 301.600,295.914 301.600 C 295.663 301.600,294.886 302.185,294.188 302.900 C 292.666 304.459,289.416 306.800,288.775 306.800 C 288.522 306.800,287.781 307.250,287.127 307.800 C 286.473 308.350,285.668 308.800,285.336 308.800 C 285.005 308.800,283.444 309.385,281.867 310.100 L 279.000 311.400 199.800 311.400 L 120.600 311.400 118.495 310.314 C 117.338 309.717,115.632 309.024,114.705 308.774 C 113.778 308.525,112.780 307.978,112.487 307.560 C 112.194 307.142,111.715 306.800,111.423 306.800 C 110.306 306.800,109.053 305.938,105.833 302.953 C 105.030 302.209,104.195 301.600,103.978 301.600 C 103.761 301.600,103.378 301.150,103.127 300.600 C 102.877 300.050,102.435 299.600,102.146 299.600 C 101.857 299.600,101.358 299.092,101.037 298.471 C 100.716 297.850,100.158 297.097,99.797 296.798 C 99.437 296.498,98.787 295.559,98.354 294.710 C 97.921 293.861,97.239 292.839,96.838 292.438 C 96.437 292.037,95.983 291.035,95.828 290.209 C 95.673 289.384,95.212 288.350,94.802 287.910 C 94.361 287.436,93.867 285.948,93.589 284.255 C 93.332 282.685,92.824 280.500,92.461 279.400 C 91.445 276.324,91.446 124.576,92.462 121.200 C 92.826 119.990,93.426 117.605,93.796 115.901 C 94.165 114.196,94.687 112.666,94.954 112.501 C 95.221 112.335,95.663 111.437,95.935 110.505 C 96.207 109.573,96.873 108.331,97.415 107.746 C 97.957 107.162,98.400 106.466,98.400 106.200 C 98.400 105.934,98.805 105.264,99.300 104.710 C 99.795 104.157,100.512 103.276,100.893 102.752 C 102.455 100.608,108.081 95.600,108.928 95.600 C 109.192 95.600,109.605 95.285,109.845 94.900 C 110.086 94.515,110.984 93.953,111.842 93.652 C 112.699 93.351,113.760 92.786,114.200 92.396 C 114.640 92.006,115.978 91.483,117.173 91.232 C 118.368 90.982,119.604 90.563,119.920 90.300 C 121.562 88.938,124.858 88.877,199.271 88.838 C 249.954 88.812,273.713 88.934,275.871 89.233 M120.602 117.719 C 120.271 118.191,120.023 119.213,120.050 119.989 C 120.100 121.388,120.102 121.386,120.376 119.707 C 120.528 118.777,120.753 117.914,120.876 117.790 C 121.444 117.222,147.333 117.561,147.916 118.144 C 148.401 118.629,148.485 121.031,148.436 133.061 C 148.361 151.487,148.242 151.183,155.513 151.194 C 163.105 151.206,162.800 151.949,162.800 133.450 C 162.800 123.466,162.940 118.361,163.217 118.189 C 163.919 117.756,178.014 117.854,178.455 118.295 C 178.712 118.552,178.842 123.930,178.815 133.142 C 178.761 151.495,178.644 151.200,185.993 151.200 C 193.493 151.200,193.200 151.923,193.200 133.450 C 193.200 122.801,193.330 118.367,193.648 118.170 C 194.314 117.759,208.242 117.872,208.998 118.295 C 209.577 118.619,209.655 120.293,209.724 133.762 L 209.800 148.865 211.106 150.033 C 213.632 152.289,222.641 151.523,223.612 148.969 C 223.862 148.311,224.007 142.336,223.990 133.432 C 223.975 125.474,224.063 118.702,224.186 118.382 C 224.453 117.686,238.972 117.612,239.663 118.303 C 239.909 118.549,240.042 124.117,240.015 133.125 C 239.960 151.851,239.611 150.900,246.630 151.134 C 254.682 151.403,254.426 151.990,254.390 133.348 C 254.375 125.345,254.517 118.520,254.706 118.181 C 255.155 117.381,280.886 117.241,281.841 118.034 C 282.494 118.576,282.493 229.331,281.841 231.200 C 281.546 232.043,281.578 232.118,282.046 231.680 C 282.913 230.867,283.078 119.083,282.214 117.765 L 281.619 116.857 268.415 116.834 L 255.212 116.810 254.577 117.779 C 254.025 118.622,253.948 120.607,253.985 132.967 C 254.039 151.102,254.310 150.400,247.259 150.400 C 240.059 150.400,240.389 151.242,240.447 133.037 C 240.487 120.687,240.409 118.673,239.875 118.083 C 238.930 117.039,224.500 117.120,223.911 118.173 C 223.674 118.597,223.537 124.403,223.563 132.920 C 223.620 151.147,223.909 150.400,216.814 150.400 C 209.989 150.400,210.400 151.508,210.400 133.116 L 210.400 118.592 209.500 118.002 C 208.169 117.130,194.510 117.066,193.500 117.927 C 192.857 118.475,192.800 119.709,192.800 133.043 C 192.800 151.294,193.150 150.400,186.014 150.400 C 179.189 150.400,179.600 151.508,179.600 133.116 L 179.600 118.592 178.700 117.996 C 177.326 117.086,163.609 117.059,162.913 117.966 C 162.550 118.437,162.422 122.406,162.413 133.442 L 162.400 148.283 161.419 149.342 C 160.472 150.364,160.286 150.400,155.993 150.400 C 148.772 150.400,149.121 151.308,149.231 132.801 L 149.314 118.773 148.391 117.791 L 147.468 116.808 134.336 116.834 C 121.370 116.860,121.196 116.871,120.602 117.719 M120.194 174.600 C 120.194 203.420,120.242 215.151,120.300 200.669 C 120.358 186.187,120.358 162.607,120.300 148.269 C 120.242 133.931,120.194 145.780,120.194 174.600 M120.101 228.600 C 120.105 229.480,120.187 229.793,120.283 229.295 C 120.379 228.798,120.375 228.078,120.275 227.695 C 120.175 227.313,120.096 227.720,120.101 228.600 M120.412 230.820 C 120.398 231.529,121.158 232.403,121.780 232.394 C 122.061 232.390,122.056 232.290,121.766 232.094 C 121.527 231.932,121.127 231.440,120.878 231.000 C 120.542 230.407,120.421 230.360,120.412 230.820 M122.884 231.672 C 122.508 231.821,131.565 231.956,143.011 231.972 C 161.169 231.996,163.935 232.079,164.711 232.623 L 165.600 233.245 165.695 250.523 L 165.791 267.800 165.907 251.000 C 166.035 232.385,166.057 232.682,164.505 232.055 C 163.274 231.558,124.077 231.197,122.884 231.672 M256.800 231.593 C 245.250 231.707,235.496 231.950,235.124 232.134 C 234.130 232.624,233.115 234.343,233.483 234.911 C 233.658 235.180,233.895 242.870,234.011 252.000 L 234.221 268.600 234.311 250.923 L 234.400 233.245 235.289 232.623 C 236.067 232.078,238.921 231.999,258.189 231.994 C 272.548 231.990,279.991 231.853,279.600 231.600 C 279.270 231.387,278.730 231.251,278.400 231.299 C 278.070 231.347,268.350 231.479,256.800 231.593 M233.311 270.207 C 232.558 270.735,228.287 270.836,200.922 270.977 C 183.585 271.066,168.790 271.183,168.044 271.237 C 167.093 271.306,166.516 271.106,166.113 270.568 C 165.562 269.833,165.543 269.841,165.669 270.761 L 165.800 271.723 199.200 271.642 C 233.864 271.558,234.400 271.533,234.400 269.991 C 234.400 269.478,234.333 269.492,233.311 270.207 "
              stroke="none" fill="#0c7b44" fill-rule="evenodd"></path>
        <path id="path2"
              d="M123.147 89.350 C 121.688 89.611,120.236 90.038,119.920 90.300 C 119.604 90.563,118.368 90.982,117.173 91.232 C 115.978 91.483,114.640 92.006,114.200 92.396 C 113.760 92.786,112.699 93.351,111.842 93.652 C 110.984 93.953,110.086 94.515,109.845 94.900 C 109.605 95.285,109.192 95.600,108.928 95.600 C 108.081 95.600,102.455 100.608,100.893 102.752 C 100.512 103.276,99.795 104.157,99.300 104.710 C 98.805 105.264,98.400 105.934,98.400 106.200 C 98.400 106.466,97.957 107.162,97.415 107.746 C 96.873 108.331,96.207 109.573,95.935 110.505 C 95.663 111.437,95.221 112.335,94.954 112.501 C 94.687 112.666,94.165 114.196,93.796 115.901 C 93.426 117.605,92.826 119.990,92.462 121.200 C 91.446 124.576,91.445 276.324,92.461 279.400 C 92.824 280.500,93.332 282.685,93.589 284.255 C 93.867 285.948,94.361 287.436,94.802 287.910 C 95.212 288.350,95.673 289.384,95.828 290.209 C 95.983 291.035,96.437 292.037,96.838 292.438 C 97.239 292.839,97.921 293.861,98.354 294.710 C 98.787 295.559,99.437 296.498,99.797 296.798 C 100.158 297.097,100.716 297.850,101.037 298.471 C 101.358 299.092,101.857 299.600,102.146 299.600 C 102.435 299.600,102.877 300.050,103.127 300.600 C 103.378 301.150,103.761 301.600,103.978 301.600 C 104.195 301.600,105.030 302.209,105.833 302.953 C 109.053 305.938,110.306 306.800,111.423 306.800 C 111.715 306.800,112.194 307.142,112.487 307.560 C 112.780 307.978,113.778 308.525,114.705 308.774 C 115.632 309.024,117.338 309.717,118.495 310.314 L 120.600 311.400 199.800 311.400 L 279.000 311.400 281.867 310.100 C 283.444 309.385,285.005 308.800,285.336 308.800 C 285.668 308.800,286.473 308.350,287.127 307.800 C 287.781 307.250,288.522 306.800,288.775 306.800 C 289.416 306.800,292.666 304.459,294.188 302.900 C 294.886 302.185,295.663 301.600,295.914 301.600 C 296.166 301.600,296.587 301.195,296.850 300.700 C 297.113 300.205,297.766 299.350,298.301 298.800 C 299.959 297.094,302.000 294.349,302.000 293.824 C 302.000 293.549,302.364 292.994,302.809 292.592 C 303.254 292.189,303.893 290.916,304.228 289.763 C 304.563 288.610,305.084 287.462,305.386 287.211 C 305.688 286.961,306.143 285.461,306.398 283.878 C 306.652 282.295,307.116 279.883,307.430 278.518 C 308.276 274.833,308.284 126.421,307.438 122.682 C 307.130 121.317,306.690 118.954,306.462 117.431 C 306.228 115.863,305.703 114.195,305.252 113.585 C 304.815 112.993,304.337 111.870,304.190 111.089 C 304.044 110.308,303.570 109.289,303.138 108.825 C 302.705 108.361,302.094 107.365,301.779 106.613 C 301.465 105.860,300.977 105.099,300.694 104.922 C 300.412 104.745,299.879 104.125,299.510 103.544 C 298.153 101.408,292.681 96.270,291.295 95.830 C 290.802 95.674,290.230 95.230,290.024 94.845 C 289.818 94.460,288.873 93.900,287.925 93.602 C 286.976 93.304,285.821 92.724,285.357 92.314 C 284.894 91.904,283.814 91.462,282.957 91.332 C 282.101 91.203,280.860 90.774,280.200 90.381 C 279.540 89.987,277.592 89.471,275.871 89.233 C 271.245 88.593,126.766 88.704,123.147 89.350 M279.000 90.903 C 282.021 91.810,286.509 93.669,288.240 94.730 C 289.741 95.650,292.291 97.391,292.800 97.843 C 295.280 100.044,298.622 103.551,299.520 104.895 C 302.130 108.797,303.211 110.731,303.829 112.600 C 304.193 113.700,304.732 114.987,305.028 115.460 C 306.769 118.244,306.800 119.755,306.793 200.496 C 306.787 265.476,306.698 277.542,306.205 280.600 C 304.268 292.591,293.962 305.112,283.200 308.551 C 282.210 308.867,280.765 309.398,279.989 309.731 C 276.778 311.108,271.769 311.200,199.716 311.199 C 126.521 311.198,123.236 311.132,119.742 309.606 C 118.830 309.208,117.492 308.752,116.768 308.593 C 115.557 308.327,110.461 305.769,110.000 305.196 C 109.890 305.059,108.986 304.394,107.992 303.718 C 104.833 301.569,98.400 294.439,98.400 293.086 C 98.400 292.847,98.058 292.280,97.640 291.826 C 97.222 291.372,96.606 290.190,96.270 289.200 C 95.934 288.210,95.389 286.860,95.058 286.200 C 92.974 282.036,93.000 283.114,93.000 200.400 C 93.000 116.929,92.946 119.033,95.207 114.200 C 95.619 113.320,96.335 111.790,96.798 110.800 C 101.994 99.690,113.562 91.406,126.000 89.890 C 126.770 89.796,160.700 89.742,201.400 89.770 L 275.400 89.822 279.000 90.903 M120.004 116.792 C 119.182 118.329,119.443 231.694,120.270 232.300 C 120.796 232.685,125.886 232.800,142.467 232.800 L 163.982 232.800 164.636 233.798 C 165.223 234.695,165.275 236.680,165.145 253.178 C 165.037 266.819,165.120 271.680,165.467 272.027 C 166.249 272.809,233.605 272.555,234.400 271.766 C 234.914 271.257,235.013 268.466,235.088 252.331 C 235.137 241.968,235.287 233.380,235.421 233.245 C 235.556 233.110,246.175 232.910,259.019 232.800 C 280.749 232.614,282.422 232.550,283.086 231.886 C 284.269 230.702,284.386 119.229,283.207 117.300 L 282.412 116.000 268.641 116.000 L 254.871 116.000 253.836 117.231 L 252.800 118.461 252.800 132.977 C 252.800 150.796,253.203 149.600,247.198 149.600 C 241.214 149.600,241.574 150.667,241.610 133.024 C 241.626 125.200,241.495 118.574,241.319 118.299 C 240.128 116.438,239.608 116.331,231.938 116.382 L 224.612 116.431 223.506 117.490 L 222.400 118.550 222.400 133.093 L 222.400 147.636 221.418 148.618 C 220.514 149.522,220.137 149.600,216.647 149.600 C 210.796 149.600,211.157 150.684,211.201 133.224 C 211.221 125.401,211.229 118.787,211.219 118.527 C 211.150 116.792,209.063 116.334,201.307 116.353 L 193.830 116.371 192.715 117.564 L 191.600 118.757 191.600 133.124 C 191.600 150.645,191.930 149.600,186.404 149.600 C 180.117 149.600,180.466 150.586,180.445 132.780 C 180.435 124.981,180.422 118.477,180.414 118.327 C 180.336 116.803,178.005 116.334,170.692 116.370 L 163.400 116.406 162.287 117.624 L 161.174 118.842 161.215 133.265 L 161.256 147.688 160.359 148.644 C 159.532 149.524,159.154 149.600,155.592 149.600 C 149.853 149.600,150.296 150.958,150.375 133.630 C 150.443 118.524,150.411 118.209,148.641 116.730 C 147.261 115.576,120.624 115.633,120.004 116.792 M148.391 117.791 L 149.314 118.773 149.231 132.801 C 149.121 151.308,148.772 150.400,155.993 150.400 C 160.286 150.400,160.472 150.364,161.419 149.342 L 162.400 148.283 162.413 133.442 C 162.422 122.406,162.550 118.437,162.913 117.966 C 163.609 117.059,177.326 117.086,178.700 117.996 L 179.600 118.592 179.600 133.116 C 179.600 151.508,179.189 150.400,186.014 150.400 C 193.150 150.400,192.800 151.294,192.800 133.043 C 192.800 119.709,192.857 118.475,193.500 117.927 C 194.510 117.066,208.169 117.130,209.500 118.002 L 210.400 118.592 210.400 133.116 C 210.400 151.508,209.989 150.400,216.814 150.400 C 223.909 150.400,223.620 151.147,223.563 132.920 C 223.537 124.403,223.674 118.597,223.911 118.173 C 224.500 117.120,238.930 117.039,239.875 118.083 C 240.409 118.673,240.487 120.687,240.447 133.037 C 240.389 151.242,240.059 150.400,247.259 150.400 C 254.310 150.400,254.039 151.102,253.985 132.967 C 253.948 120.607,254.025 118.622,254.577 117.779 L 255.212 116.810 268.415 116.834 L 281.619 116.857 282.214 117.765 C 282.975 118.927,282.924 230.836,282.161 231.599 C 281.852 231.908,274.979 232.030,258.961 232.010 C 238.848 231.986,236.095 232.057,235.300 232.614 L 234.400 233.245 234.400 251.813 L 234.400 270.382 233.500 270.971 C 232.728 271.477,227.861 271.572,199.200 271.640 L 165.800 271.719 165.703 252.560 C 165.606 233.504,165.601 233.396,164.747 232.690 C 163.946 232.029,162.416 231.983,142.484 232.011 C 127.407 232.032,120.950 231.910,120.640 231.600 C 119.883 230.844,119.837 118.909,120.593 117.755 L 121.179 116.860 134.324 116.834 L 147.468 116.808 148.391 117.791 "
              stroke="none" fill="#5a9c77" fill-rule="evenodd"></path>
        <path id="path3"
              d="M164.000 0.556 C 164.000 4.078,178.203 4.367,178.728 0.855 C 178.854 0.008,178.788 0.000,171.428 0.000 C 165.355 0.000,164.000 0.101,164.000 0.556 M218.800 0.600 C 218.800 1.125,216.446 1.200,200.014 1.200 L 181.228 1.200 179.872 2.391 L 178.515 3.582 171.158 3.691 L 163.800 3.800 163.673 4.900 L 163.547 6.000 158.573 6.000 C 154.272 6.000,153.600 5.913,153.600 5.357 C 153.600 4.898,153.800 4.800,154.300 5.013 C 156.735 6.051,162.140 5.634,162.824 4.356 C 164.344 1.516,156.351 0.138,153.800 2.800 C 152.719 3.928,152.467 4.000,149.602 4.000 C 146.153 4.000,145.048 4.512,145.262 6.012 C 145.467 7.452,146.996 8.077,149.700 7.826 C 151.087 7.697,152.000 7.769,152.000 8.006 C 152.000 9.011,144.529 8.457,143.837 7.400 C 142.803 5.822,138.886 5.929,137.155 7.583 C 136.087 8.604,135.646 8.754,133.927 8.683 C 131.751 8.592,130.800 9.311,130.800 11.046 C 130.800 11.902,130.751 11.914,129.616 11.348 C 128.076 10.580,125.746 11.001,124.581 12.258 C 124.101 12.776,123.279 13.202,122.754 13.205 C 120.963 13.216,119.968 13.701,119.371 14.855 C 118.884 15.798,118.595 15.964,117.787 15.761 C 116.214 15.366,114.904 15.889,114.511 17.068 C 114.198 18.006,113.935 18.142,112.377 18.169 C 110.784 18.197,110.538 18.332,110.000 19.476 C 109.520 20.498,109.221 20.709,108.500 20.533 C 107.078 20.186,105.777 20.694,105.277 21.790 C 104.928 22.556,104.515 22.800,103.569 22.800 C 102.698 22.800,101.982 23.163,101.200 24.000 C 100.407 24.849,99.705 25.200,98.800 25.200 C 97.916 25.200,97.193 25.547,96.460 26.325 C 95.877 26.943,95.083 27.568,94.697 27.713 C 94.310 27.859,93.786 28.433,93.532 28.989 C 93.157 29.813,92.790 30.000,91.545 30.000 C 90.344 30.000,89.874 30.221,89.339 31.036 C 88.966 31.607,88.224 32.239,87.691 32.441 C 87.159 32.644,86.629 33.167,86.515 33.605 C 86.400 34.042,85.985 34.400,85.591 34.400 C 85.198 34.400,84.122 35.030,83.200 35.800 C 82.278 36.570,81.275 37.200,80.971 37.200 C 80.667 37.200,80.142 37.622,79.804 38.138 C 79.465 38.654,78.757 39.273,78.229 39.514 C 77.701 39.754,77.152 40.322,77.008 40.776 C 76.864 41.229,76.403 41.600,75.983 41.600 C 75.540 41.600,74.960 42.103,74.600 42.800 C 74.255 43.466,73.656 44.000,73.252 44.000 C 72.851 44.000,72.181 44.379,71.762 44.843 C 71.343 45.306,70.338 46.023,69.529 46.436 C 68.720 46.849,67.946 47.540,67.809 47.973 C 67.671 48.405,67.197 48.874,66.755 49.014 C 66.313 49.155,65.755 49.700,65.515 50.227 C 65.275 50.754,64.762 51.285,64.375 51.408 C 63.988 51.531,63.381 52.074,63.027 52.616 C 62.672 53.157,62.112 53.600,61.782 53.600 C 61.453 53.600,60.979 54.047,60.731 54.592 C 60.482 55.138,59.935 55.694,59.515 55.827 C 59.095 55.960,58.555 56.500,58.315 57.027 C 58.075 57.554,57.535 58.094,57.115 58.227 C 56.695 58.360,56.162 58.884,55.932 59.391 C 55.701 59.897,55.082 60.508,54.556 60.747 C 54.030 60.987,53.600 61.461,53.600 61.801 C 53.600 62.141,53.147 62.592,52.593 62.803 C 52.039 63.013,51.417 63.628,51.212 64.169 C 51.006 64.709,50.472 65.347,50.024 65.587 C 49.576 65.827,49.102 66.452,48.970 66.977 C 48.838 67.502,47.667 68.981,46.366 70.265 C 45.054 71.560,44.000 72.956,43.998 73.400 C 43.996 73.868,43.498 74.483,42.797 74.881 C 42.139 75.256,41.600 75.812,41.600 76.117 C 41.600 76.422,41.155 76.874,40.611 77.122 C 40.054 77.376,39.503 78.059,39.350 78.686 C 39.201 79.299,38.656 80.309,38.139 80.931 C 37.623 81.553,37.200 82.412,37.200 82.841 C 37.200 83.305,36.794 83.774,36.195 84.002 C 35.642 84.212,34.985 84.835,34.733 85.386 C 34.482 85.938,33.854 86.665,33.338 87.004 C 32.822 87.342,32.400 87.898,32.400 88.240 C 32.400 88.582,31.860 89.402,31.200 90.062 C 30.540 90.722,30.000 91.625,30.000 92.070 C 30.000 92.515,29.446 93.396,28.770 94.028 C 27.816 94.919,27.601 95.383,27.816 96.089 C 28.280 97.620,28.242 97.704,26.905 98.068 C 25.962 98.325,25.540 98.716,25.353 99.510 C 25.211 100.110,24.781 100.960,24.397 101.400 C 23.459 102.477,22.800 103.803,22.800 104.616 C 22.800 104.984,22.340 105.831,21.779 106.498 C 21.217 107.166,20.656 108.221,20.531 108.844 C 20.407 109.467,19.972 110.082,19.565 110.211 C 18.861 110.435,18.007 112.559,18.002 114.100 C 18.001 114.485,17.833 114.800,17.629 114.800 C 16.821 114.800,16.083 116.053,15.815 117.880 C 15.647 119.026,15.161 120.203,14.609 120.800 C 14.100 121.350,13.556 122.430,13.399 123.200 C 13.242 123.970,12.758 124.988,12.323 125.462 C 11.813 126.017,11.419 127.238,11.214 128.890 C 10.974 130.824,10.637 131.734,9.848 132.586 C 8.970 133.533,8.800 134.090,8.800 136.016 C 8.800 138.019,8.645 138.481,7.600 139.600 C 6.555 140.718,6.400 141.182,6.400 143.180 C 6.400 144.966,6.223 145.636,5.602 146.198 C 4.543 147.156,4.005 149.234,4.002 152.374 C 4.000 154.430,3.832 155.127,3.167 155.836 C 2.062 157.011,1.589 159.149,1.626 162.800 C 1.671 167.246,1.680 167.200,0.800 167.200 C 0.021 167.200,0.000 167.467,0.000 177.600 C 0.000 186.578,0.082 188.000,0.600 188.000 C 1.119 188.000,1.200 189.508,1.200 199.174 C 1.200 210.687,1.372 212.147,2.777 212.593 C 3.718 212.891,4.115 233.200,3.180 233.200 C 1.274 233.200,0.969 241.654,2.800 243.739 C 3.937 245.033,4.000 245.290,4.000 248.584 C 4.000 251.915,4.051 252.112,5.200 253.262 C 6.295 254.356,6.400 254.697,6.400 257.142 C 6.400 260.146,6.983 261.358,8.626 261.771 C 9.391 261.963,9.562 262.164,9.265 262.521 C 8.171 263.840,8.575 267.069,10.000 268.400 C 10.991 269.326,11.200 269.836,11.200 271.330 C 11.200 272.659,11.456 273.443,12.166 274.287 C 12.698 274.919,13.254 276.148,13.401 277.018 C 13.849 279.655,14.030 280.031,15.034 280.413 C 15.830 280.716,16.000 281.058,16.000 282.362 C 16.000 283.967,16.784 285.200,17.805 285.200 C 18.655 285.200,18.829 285.798,18.366 287.126 C 17.812 288.715,18.394 289.819,19.950 290.130 C 21.064 290.353,21.117 290.453,20.917 291.943 C 20.732 293.320,20.838 293.606,21.753 294.206 C 22.551 294.729,22.800 295.224,22.800 296.286 C 22.800 297.299,23.109 297.968,23.933 298.740 C 24.556 299.323,25.187 300.287,25.336 300.883 C 25.485 301.479,26.055 302.450,26.603 303.041 C 27.152 303.633,27.600 304.459,27.600 304.877 C 27.600 305.303,28.127 305.937,28.797 306.319 C 29.790 306.884,29.995 307.255,29.997 308.491 C 29.999 309.652,30.229 310.132,31.036 310.661 C 31.607 311.034,32.239 311.776,32.441 312.309 C 32.644 312.841,33.169 313.372,33.609 313.487 C 34.052 313.602,34.519 314.165,34.656 314.748 C 34.792 315.327,35.307 316.250,35.800 316.800 C 36.293 317.350,36.815 318.301,36.960 318.914 C 37.108 319.545,37.647 320.221,38.203 320.474 C 38.743 320.720,39.294 321.265,39.427 321.685 C 39.560 322.105,40.090 322.640,40.604 322.875 C 41.118 323.109,41.655 323.773,41.798 324.350 C 41.940 324.928,42.474 325.850,42.984 326.400 C 43.493 326.950,44.033 327.805,44.182 328.300 C 44.332 328.796,44.811 329.392,45.246 329.625 C 45.682 329.858,46.212 330.505,46.424 331.063 C 46.636 331.621,47.181 332.175,47.636 332.293 C 48.090 332.412,48.630 332.952,48.836 333.493 C 49.041 334.035,49.556 334.568,49.980 334.679 C 50.403 334.790,50.932 335.402,51.154 336.040 C 51.413 336.783,51.838 337.200,52.336 337.200 C 52.830 337.200,53.204 337.562,53.363 338.194 C 53.513 338.794,53.992 339.283,54.571 339.429 C 55.138 339.571,55.629 340.062,55.771 340.629 C 55.914 341.196,56.404 341.686,56.971 341.829 C 57.538 341.971,58.029 342.462,58.171 343.029 C 58.314 343.596,58.804 344.086,59.371 344.229 C 59.938 344.371,60.429 344.862,60.571 345.429 C 60.717 346.008,61.206 346.487,61.806 346.637 C 62.438 346.796,62.800 347.170,62.800 347.664 C 62.800 348.168,63.222 348.589,64.000 348.860 C 64.773 349.130,65.200 349.552,65.200 350.049 C 65.200 350.505,65.612 350.976,66.207 351.203 C 66.761 351.413,67.387 352.039,67.597 352.593 C 67.835 353.217,68.292 353.600,68.800 353.600 C 69.309 353.600,69.766 353.983,70.004 354.610 C 70.215 355.166,70.706 355.733,71.094 355.869 C 71.482 356.006,72.250 356.556,72.800 357.092 C 74.082 358.339,76.244 359.827,77.900 360.602 C 78.615 360.937,79.200 361.482,79.200 361.814 C 79.200 362.146,79.695 362.634,80.300 362.900 C 80.905 363.166,82.318 364.332,83.440 365.492 C 85.174 367.284,85.701 367.600,86.950 367.600 C 88.154 367.600,88.489 367.783,88.804 368.610 C 89.015 369.166,89.506 369.740,89.894 369.886 C 90.282 370.032,91.077 370.657,91.660 371.275 C 92.411 372.071,93.112 372.401,94.060 372.403 C 95.128 372.405,95.538 372.648,96.081 373.603 C 96.463 374.273,97.097 374.800,97.522 374.800 C 97.940 374.800,98.846 375.340,99.537 376.000 C 100.228 376.660,101.156 377.200,101.599 377.200 C 102.042 377.200,102.800 377.654,103.282 378.208 C 103.807 378.812,104.773 379.314,105.694 379.461 C 106.684 379.620,107.387 380.007,107.674 380.553 C 108.299 381.741,108.783 381.987,110.510 381.994 C 111.726 381.999,112.090 382.184,112.379 382.945 C 112.762 383.952,113.808 384.386,115.873 384.395 C 116.785 384.398,117.217 384.623,117.396 385.188 C 117.611 385.864,119.657 386.790,120.954 386.798 C 121.149 386.799,121.701 387.224,122.181 387.742 C 123.334 388.985,125.676 389.420,127.181 388.670 C 128.320 388.101,128.331 388.108,128.586 389.466 C 128.884 391.057,130.026 391.673,132.072 391.347 C 133.159 391.174,133.649 391.360,134.772 392.368 C 135.949 393.425,136.453 393.600,138.319 393.600 C 140.166 393.600,140.701 393.781,141.861 394.800 C 143.355 396.112,148.058 396.582,149.115 395.525 C 149.481 395.159,149.693 395.348,150.044 396.354 C 150.715 398.279,156.821 399.419,158.337 397.903 C 158.910 397.330,159.583 398.078,159.594 399.300 C 159.599 399.937,160.174 400.000,166.000 400.000 C 171.954 400.000,172.400 399.949,172.400 399.262 C 172.400 397.456,171.055 397.003,165.547 396.956 C 162.704 396.931,160.263 396.796,160.122 396.656 C 159.982 396.515,162.867 396.400,166.533 396.400 L 173.200 396.400 173.200 397.357 C 173.200 398.820,172.816 398.800,200.233 398.800 C 222.870 398.800,226.000 398.873,226.000 399.400 C 226.000 399.910,227.044 400.000,233.000 400.000 C 239.733 400.000,240.000 399.970,240.000 399.200 C 240.000 398.299,239.852 398.328,244.214 398.395 C 247.861 398.452,249.415 398.014,249.793 396.823 C 250.026 396.089,250.377 396.000,253.047 396.000 C 256.057 396.000,257.738 395.480,258.778 394.226 C 259.139 393.791,259.998 393.600,261.591 393.600 C 263.449 393.600,264.077 393.420,264.908 392.650 C 265.586 392.022,266.717 391.582,268.255 391.350 C 270.150 391.065,270.670 390.816,271.076 390.000 C 271.507 389.135,271.843 388.999,273.566 388.995 C 275.188 388.991,275.770 388.787,276.701 387.895 C 277.329 387.293,278.194 386.799,278.622 386.798 C 280.264 386.793,282.360 385.955,282.597 385.209 C 282.769 384.667,283.366 384.364,284.640 384.173 C 286.325 383.920,287.600 383.164,287.600 382.417 C 287.600 382.238,288.405 381.970,289.389 381.823 C 290.598 381.641,291.427 381.237,291.947 380.577 C 292.369 380.040,292.979 379.600,293.302 379.600 C 293.624 379.600,294.588 379.123,295.444 378.541 C 296.300 377.959,297.450 377.362,298.000 377.215 C 298.550 377.068,299.235 376.465,299.522 375.874 C 299.955 374.983,300.308 374.800,301.595 374.800 C 302.861 374.800,303.302 374.580,304.000 373.600 C 304.470 372.940,305.176 372.400,305.569 372.400 C 305.962 372.400,306.749 371.969,307.318 371.441 C 307.887 370.914,308.858 370.317,309.476 370.115 C 310.094 369.913,310.773 369.365,310.985 368.896 C 311.197 368.427,311.818 367.932,312.364 367.795 C 312.910 367.658,313.958 367.018,314.692 366.373 C 315.427 365.728,316.287 365.200,316.605 365.200 C 316.922 365.200,317.465 364.767,317.812 364.238 C 318.158 363.709,318.889 363.164,319.435 363.027 C 319.982 362.890,320.597 362.333,320.804 361.789 C 321.011 361.245,321.450 360.800,321.780 360.800 C 322.110 360.800,322.659 360.260,323.000 359.600 C 323.341 358.940,323.942 358.400,324.335 358.400 C 324.729 358.400,325.554 357.875,326.169 357.232 C 326.784 356.590,327.713 355.958,328.232 355.828 C 328.752 355.697,329.373 355.224,329.613 354.776 C 329.853 354.328,330.491 353.794,331.031 353.588 C 331.572 353.383,332.177 352.786,332.376 352.262 C 332.576 351.738,333.110 351.212,333.564 351.093 C 334.019 350.975,334.559 350.435,334.764 349.893 C 334.970 349.352,335.526 348.808,335.999 348.684 C 336.472 348.561,336.953 348.101,337.067 347.664 C 337.182 347.226,337.706 346.760,338.232 346.628 C 338.796 346.486,339.287 345.994,339.429 345.429 C 339.571 344.862,340.062 344.371,340.629 344.229 C 341.196 344.086,341.686 343.596,341.829 343.029 C 341.971 342.462,342.462 341.971,343.029 341.829 C 343.596 341.686,344.086 341.196,344.229 340.629 C 344.371 340.062,344.862 339.571,345.429 339.429 C 346.008 339.283,346.487 338.794,346.637 338.194 C 346.796 337.562,347.170 337.200,347.664 337.200 C 348.162 337.200,348.587 336.783,348.846 336.040 C 349.068 335.402,349.597 334.790,350.020 334.679 C 350.444 334.568,350.964 334.021,351.176 333.463 C 351.388 332.905,351.928 332.253,352.376 332.013 C 352.824 331.773,353.299 331.145,353.431 330.618 C 353.564 330.090,354.016 329.348,354.436 328.967 C 354.898 328.549,355.200 327.747,355.200 326.938 C 355.200 325.852,355.356 325.600,356.026 325.600 C 357.270 325.600,358.400 324.862,358.400 324.050 C 358.400 323.653,358.834 323.130,359.365 322.889 C 359.896 322.647,360.443 322.094,360.581 321.660 C 360.719 321.226,361.285 320.574,361.840 320.211 C 362.696 319.650,362.830 319.296,362.724 317.875 C 362.613 316.380,362.700 316.186,363.537 316.067 C 364.053 315.994,364.760 315.438,365.108 314.832 C 365.456 314.225,366.102 313.565,366.544 313.365 C 366.986 313.164,367.513 312.494,367.715 311.876 C 367.917 311.258,368.514 310.287,369.041 309.718 C 369.569 309.149,370.000 308.332,370.000 307.902 C 370.000 307.472,370.552 306.605,371.228 305.974 C 372.691 304.607,372.424 303.701,370.336 302.945 C 369.601 302.679,369.315 302.447,369.700 302.430 C 370.204 302.409,370.400 302.065,370.400 301.200 C 370.400 300.540,370.580 300.000,370.800 300.000 C 371.020 300.000,371.200 300.264,371.200 300.586 C 371.200 302.316,374.235 302.217,374.660 300.473 C 374.804 299.883,375.344 298.891,375.861 298.269 C 376.378 297.647,376.914 296.657,377.054 296.069 C 377.194 295.481,377.745 294.639,378.279 294.198 C 378.918 293.670,379.327 292.819,379.476 291.708 C 379.632 290.550,379.933 289.948,380.439 289.788 C 381.139 289.565,381.993 287.437,381.998 285.900 C 381.999 285.515,382.167 285.200,382.371 285.200 C 383.179 285.200,383.917 283.947,384.185 282.120 C 384.359 280.933,384.833 279.813,385.426 279.186 C 386.826 277.706,387.073 275.971,386.020 275.018 C 384.105 273.285,381.879 275.931,383.190 278.382 C 383.543 279.041,383.509 279.200,383.014 279.200 C 381.708 279.200,382.180 274.078,383.500 273.927 C 384.517 273.810,384.618 273.635,384.835 271.600 C 384.980 270.236,385.094 269.894,385.135 270.700 C 385.315 274.296,388.394 274.156,388.847 270.530 C 389.015 269.189,389.431 268.192,390.147 267.420 C 391.002 266.496,391.200 265.895,391.200 264.213 C 391.200 262.536,391.426 261.844,392.389 260.571 C 393.373 259.270,393.580 258.615,393.589 256.762 C 393.597 255.044,393.785 254.356,394.398 253.802 C 396.012 252.341,396.676 245.933,395.350 244.607 C 392.872 242.129,391.043 247.579,392.802 252.204 C 393.164 253.159,393.118 253.198,391.690 253.154 C 390.871 253.128,390.515 253.025,390.900 252.924 C 391.515 252.764,391.600 252.190,391.600 248.221 L 391.600 243.700 392.800 243.460 L 394.000 243.220 394.000 237.410 C 394.000 232.480,394.092 231.600,394.608 231.600 C 395.078 231.600,395.146 231.848,394.908 232.700 C 393.834 236.538,394.866 242.962,396.517 242.724 C 398.883 242.384,399.177 230.800,396.820 230.800 C 395.825 230.800,396.290 205.618,397.300 204.799 C 398.127 204.130,398.200 203.739,398.200 200.000 C 398.200 196.261,398.127 195.870,397.300 195.201 C 396.290 194.382,395.825 169.200,396.820 169.200 C 398.331 169.200,398.892 161.849,397.592 159.100 C 395.876 155.472,393.570 162.516,394.908 167.300 C 395.146 168.152,395.078 168.400,394.608 168.400 C 394.094 168.400,394.000 167.563,394.000 163.000 C 394.000 159.762,394.156 157.600,394.390 157.600 C 395.179 157.600,396.000 155.191,396.000 152.874 C 396.000 150.478,395.010 148.400,393.869 148.400 C 392.731 148.400,391.643 153.200,392.332 155.176 C 392.680 156.174,392.652 156.400,392.179 156.400 C 391.022 156.400,391.382 148.677,392.600 147.362 C 394.150 145.690,394.041 141.613,392.389 139.429 C 391.572 138.349,391.200 137.398,391.200 136.391 C 391.200 132.834,388.269 132.777,387.580 136.321 C 387.307 137.721,387.290 137.686,387.246 135.665 C 387.203 133.678,387.117 133.499,386.000 133.078 C 384.824 132.634,384.801 132.571,384.867 130.012 L 384.934 127.400 385.167 129.762 C 385.411 132.236,386.049 132.921,387.706 132.488 C 389.620 131.988,389.503 127.962,387.543 126.847 C 386.556 126.285,386.414 125.978,386.467 124.518 C 386.534 122.683,385.908 121.600,384.780 121.600 C 383.505 121.600,382.715 122.788,382.875 124.464 C 382.955 125.309,382.881 126.000,382.711 126.000 C 382.540 126.000,382.400 124.933,382.400 123.629 C 382.400 121.708,382.267 121.224,381.700 121.076 C 381.173 120.938,381.223 120.881,381.900 120.846 C 384.341 120.721,384.907 118.089,382.948 115.978 C 382.427 115.416,381.999 114.606,381.999 114.178 C 381.998 113.750,381.640 112.860,381.204 112.200 C 379.742 109.987,379.649 109.804,379.424 108.731 C 379.301 108.143,378.778 107.153,378.261 106.531 C 377.744 105.909,377.202 104.908,377.055 104.306 C 376.870 103.551,376.449 103.131,375.694 102.951 C 374.074 102.564,374.028 102.498,374.416 101.143 C 374.731 100.045,374.632 99.764,373.587 98.788 C 372.934 98.178,372.400 97.328,372.400 96.898 C 372.400 96.468,371.969 95.651,371.441 95.082 C 370.914 94.513,370.316 93.542,370.112 92.924 C 369.908 92.306,369.273 91.572,368.701 91.293 C 368.064 90.982,367.558 90.321,367.397 89.589 C 367.253 88.930,366.834 88.092,366.467 87.726 C 366.100 87.360,365.620 86.506,365.400 85.830 C 365.180 85.153,364.600 84.425,364.112 84.210 C 363.624 83.996,363.120 83.346,362.993 82.767 C 362.865 82.187,362.230 81.203,361.581 80.581 C 360.931 79.959,360.400 79.128,360.400 78.734 C 360.400 78.341,359.950 77.724,359.400 77.363 C 358.850 77.003,358.400 76.450,358.400 76.135 C 358.400 75.820,357.861 75.256,357.203 74.881 C 356.544 74.507,356.004 73.869,356.003 73.465 C 356.001 73.017,355.531 72.554,354.800 72.278 C 354.057 71.997,353.600 71.540,353.600 71.078 C 353.600 70.667,352.542 69.221,351.249 67.865 C 349.956 66.509,348.771 64.984,348.615 64.476 C 348.458 63.967,347.916 63.362,347.409 63.132 C 346.903 62.901,346.292 62.282,346.053 61.756 C 345.813 61.230,345.339 60.800,344.999 60.800 C 344.659 60.800,344.202 60.333,343.985 59.761 C 343.768 59.190,343.219 58.625,342.764 58.507 C 342.310 58.388,341.776 57.862,341.576 57.338 C 341.377 56.814,340.761 56.213,340.207 56.003 C 339.653 55.792,339.200 55.341,339.200 55.001 C 339.200 54.661,338.753 54.179,338.208 53.931 C 337.662 53.682,337.106 53.135,336.973 52.715 C 336.840 52.295,336.300 51.755,335.773 51.515 C 335.246 51.275,334.709 50.744,334.579 50.335 C 334.450 49.926,333.771 49.298,333.072 48.939 C 332.372 48.581,330.824 47.323,329.630 46.144 C 328.437 44.965,327.136 44.000,326.740 44.000 C 326.344 44.000,325.741 43.460,325.400 42.800 C 325.040 42.103,324.460 41.600,324.017 41.600 C 323.597 41.600,323.139 41.238,322.999 40.796 C 322.858 40.353,322.238 39.730,321.620 39.410 C 321.002 39.091,320.394 38.562,320.269 38.236 C 320.144 37.909,319.447 37.337,318.721 36.965 C 317.994 36.592,316.891 35.863,316.269 35.344 C 315.647 34.825,314.835 34.400,314.464 34.400 C 314.093 34.400,313.612 34.007,313.395 33.526 C 313.178 33.045,312.494 32.487,311.876 32.285 C 311.258 32.083,310.287 31.486,309.718 30.959 C 309.149 30.431,308.429 30.000,308.119 30.000 C 307.809 30.000,307.070 29.481,306.477 28.846 C 305.885 28.211,304.989 27.567,304.487 27.415 C 303.985 27.263,303.138 26.702,302.605 26.169 C 302.072 25.636,301.295 25.200,300.878 25.200 C 300.460 25.200,299.554 24.660,298.863 24.000 C 298.044 23.217,297.194 22.800,296.418 22.800 C 295.591 22.800,295.084 22.525,294.754 21.900 C 294.107 20.672,293.633 20.414,292.000 20.404 C 290.860 20.397,290.470 20.167,289.901 19.167 C 289.272 18.062,289.034 17.951,287.531 18.059 C 286.020 18.168,285.825 18.075,285.496 17.089 C 285.096 15.889,283.797 15.363,282.213 15.761 C 281.405 15.964,281.116 15.798,280.629 14.855 C 280.032 13.701,279.037 13.216,277.246 13.205 C 276.721 13.202,275.899 12.776,275.419 12.258 C 274.262 11.010,271.924 10.580,270.406 11.337 C 269.275 11.901,269.239 11.887,268.997 10.786 C 268.663 9.264,268.169 8.939,265.678 8.604 C 264.237 8.410,263.247 8.010,262.596 7.359 C 261.565 6.329,256.353 5.905,255.796 6.807 C 255.434 7.392,254.800 6.882,254.800 6.005 C 254.800 4.501,253.723 4.000,250.493 4.000 C 247.711 4.000,247.343 3.903,246.296 2.900 C 244.291 0.978,235.600 1.230,235.600 3.210 C 235.600 3.449,232.783 3.600,228.333 3.600 C 224.337 3.600,221.199 3.468,221.361 3.306 C 221.523 3.144,224.058 3.069,226.995 3.140 C 233.122 3.287,235.200 2.734,235.200 0.954 L 235.200 0.000 227.000 0.000 C 219.978 0.000,218.800 0.086,218.800 0.600 M217.818 5.611 C 219.403 6.591,223.080 7.074,229.395 7.132 C 232.897 7.164,233.884 7.300,234.250 7.801 C 235.038 8.878,238.872 9.550,244.484 9.595 C 244.861 9.598,245.533 9.991,245.979 10.470 C 246.647 11.186,247.409 11.384,250.300 11.593 C 253.401 11.816,253.935 11.971,254.887 12.923 C 255.834 13.870,256.275 14.000,258.549 14.000 C 261.454 14.000,262.400 14.247,262.400 15.004 C 262.400 15.672,264.499 16.400,266.426 16.400 C 267.585 16.400,268.107 16.638,268.684 17.430 C 269.308 18.287,269.851 18.499,271.908 18.685 C 273.762 18.853,274.435 19.081,274.598 19.594 C 274.879 20.480,276.482 21.200,278.173 21.200 C 279.156 21.200,279.681 21.464,280.163 22.200 C 280.595 22.858,281.191 23.202,281.909 23.205 C 283.703 23.214,284.610 23.599,285.016 24.525 C 285.298 25.168,285.866 25.462,287.157 25.634 C 288.437 25.805,289.125 26.158,289.691 26.934 C 290.246 27.697,290.827 28.002,291.733 28.006 C 293.168 28.013,293.613 28.260,294.240 29.400 C 294.517 29.902,295.187 30.248,296.040 30.329 C 296.921 30.412,297.780 30.870,298.477 31.629 C 299.070 32.273,299.921 32.800,300.368 32.800 C 300.816 32.800,301.467 33.236,301.817 33.769 C 302.220 34.385,302.990 34.829,303.929 34.988 C 305.003 35.169,305.592 35.561,306.085 36.419 C 306.549 37.227,307.076 37.600,307.754 37.600 C 308.391 37.600,308.836 37.883,308.997 38.391 C 309.151 38.875,309.883 39.372,310.883 39.672 C 311.809 39.950,312.596 40.462,312.698 40.854 C 312.798 41.235,313.446 41.818,314.140 42.150 C 314.833 42.482,315.627 43.125,315.903 43.577 C 316.180 44.030,316.698 44.400,317.055 44.400 C 317.707 44.400,319.974 46.160,322.200 48.395 C 322.860 49.058,323.630 49.600,323.910 49.600 C 324.190 49.600,324.591 50.050,324.800 50.600 C 325.009 51.150,325.442 51.600,325.763 51.600 C 326.083 51.600,326.730 52.140,327.200 52.800 C 327.670 53.460,328.316 54.000,328.636 54.000 C 328.956 54.000,329.417 54.438,329.660 54.973 C 329.904 55.508,330.620 56.160,331.252 56.421 C 331.883 56.683,332.400 57.150,332.400 57.458 C 332.400 57.767,332.835 58.185,333.366 58.387 C 333.897 58.589,334.446 59.115,334.586 59.557 C 334.726 59.998,335.194 60.471,335.625 60.608 C 336.056 60.745,336.681 61.384,337.015 62.028 C 337.348 62.673,337.894 63.200,338.229 63.200 C 338.563 63.200,339.144 63.739,339.519 64.397 C 339.893 65.056,340.429 65.596,340.710 65.597 C 340.990 65.599,341.393 66.055,341.604 66.610 C 341.815 67.166,342.267 67.728,342.609 67.859 C 342.950 67.990,343.498 68.615,343.825 69.248 C 344.153 69.882,344.682 70.400,345.003 70.400 C 345.323 70.400,345.699 70.856,345.839 71.414 C 345.979 71.972,346.613 72.696,347.247 73.024 C 347.881 73.352,348.400 73.890,348.400 74.219 C 348.400 74.548,348.816 75.007,349.325 75.239 C 349.834 75.471,350.583 76.277,350.988 77.030 C 351.394 77.784,351.884 78.400,352.077 78.400 C 352.270 78.400,352.762 79.165,353.170 80.100 C 353.578 81.035,354.291 82.027,354.756 82.303 C 355.220 82.580,355.600 83.071,355.600 83.394 C 355.600 83.717,356.050 84.276,356.600 84.637 C 357.150 84.997,357.600 85.504,357.600 85.763 C 357.600 86.022,358.230 86.901,359.000 87.718 C 359.858 88.627,360.400 89.603,360.400 90.238 C 360.400 90.934,360.660 91.343,361.190 91.481 C 361.627 91.596,362.200 92.297,362.474 93.053 C 362.745 93.803,363.379 94.688,363.884 95.018 C 364.440 95.382,364.800 96.017,364.800 96.632 C 364.800 97.239,365.268 98.077,365.968 98.723 C 366.649 99.350,367.248 100.406,367.404 101.252 C 367.581 102.213,367.978 102.844,368.579 103.118 C 369.221 103.410,369.563 104.005,369.746 105.153 C 369.910 106.177,370.298 106.931,370.800 107.200 C 371.270 107.451,371.785 108.379,372.058 109.466 C 372.350 110.623,372.783 111.375,373.224 111.490 C 373.951 111.681,374.385 112.729,374.395 114.319 C 374.398 114.825,374.850 115.655,375.399 116.164 C 375.948 116.673,376.500 117.700,376.625 118.445 C 377.094 121.237,377.220 121.552,377.966 121.789 C 378.530 121.968,378.803 122.567,379.011 124.080 C 379.191 125.387,379.616 126.453,380.186 127.023 C 380.814 127.650,381.159 128.614,381.345 130.258 C 381.550 132.077,381.832 132.782,382.605 133.415 C 383.315 133.997,383.601 134.626,383.602 135.615 C 383.606 137.738,384.349 139.945,385.218 140.409 C 385.840 140.743,386.000 141.254,386.002 142.914 C 386.005 145.683,386.655 147.894,387.618 148.409 C 388.283 148.765,388.400 149.260,388.402 151.714 C 388.405 155.150,388.915 157.218,390.002 158.202 C 390.683 158.818,390.800 159.435,390.800 162.407 C 390.800 166.846,391.385 169.974,392.340 170.643 C 394.310 172.023,394.159 228.183,392.180 230.163 C 391.382 230.961,390.805 234.527,390.802 238.684 C 390.800 241.466,390.676 242.084,389.989 242.724 C 388.862 243.774,388.400 245.677,388.400 249.270 C 388.400 251.881,388.291 252.381,387.680 252.575 C 386.694 252.888,386.000 255.008,386.000 257.706 C 386.000 259.513,385.840 260.066,385.187 260.524 C 384.244 261.185,383.600 263.138,383.600 265.340 C 383.600 266.504,383.358 267.075,382.618 267.657 C 381.849 268.262,381.578 268.949,381.365 270.829 C 381.174 272.517,380.884 273.341,380.389 273.606 C 379.582 274.038,378.800 276.009,378.800 277.611 C 378.800 278.273,378.472 278.920,377.966 279.256 C 377.433 279.610,377.001 280.511,376.769 281.757 C 376.538 282.988,376.036 284.045,375.402 284.633 C 374.700 285.284,374.400 285.981,374.400 286.965 C 374.400 287.737,374.124 288.601,373.786 288.884 C 372.201 290.216,372.000 290.544,372.000 291.801 C 372.000 292.838,371.726 293.341,370.800 294.000 C 369.863 294.667,369.600 295.158,369.600 296.236 C 369.600 297.319,369.385 297.715,368.607 298.070 C 367.948 298.370,367.530 298.967,367.366 299.842 C 367.229 300.571,366.714 301.427,366.215 301.754 C 365.717 302.079,365.192 302.938,365.048 303.661 C 364.903 304.385,364.248 305.467,363.592 306.066 C 362.937 306.665,362.400 307.504,362.400 307.931 C 362.400 308.359,361.966 308.993,361.435 309.340 C 360.904 309.688,360.356 310.491,360.217 311.125 C 360.077 311.758,359.432 312.670,358.782 313.150 C 358.132 313.631,357.600 314.366,357.600 314.785 C 357.600 315.204,357.233 315.663,356.784 315.805 C 356.308 315.956,355.873 316.536,355.741 317.194 C 355.532 318.238,354.741 319.286,351.592 322.689 C 350.937 323.397,350.400 324.150,350.400 324.362 C 350.400 324.573,350.055 324.856,349.633 324.989 C 349.212 325.123,348.681 325.765,348.454 326.416 C 348.227 327.067,347.784 327.600,347.469 327.600 C 347.155 327.600,346.672 328.144,346.396 328.809 C 346.121 329.475,345.693 330.150,345.445 330.309 C 345.198 330.469,344.507 331.255,343.911 332.056 C 342.229 334.314,331.029 345.393,329.428 346.383 C 328.643 346.868,328.000 347.434,328.000 347.641 C 328.000 347.848,327.505 348.237,326.900 348.507 C 326.295 348.776,325.480 349.392,325.090 349.875 C 324.699 350.358,324.024 350.865,323.590 351.003 C 323.155 351.141,322.800 351.527,322.800 351.862 C 322.800 352.196,322.260 352.673,321.599 352.923 C 320.938 353.172,320.300 353.683,320.181 354.059 C 320.062 354.435,319.343 355.109,318.582 355.557 C 317.822 356.006,317.200 356.569,317.200 356.809 C 317.200 357.049,316.390 357.603,315.400 358.041 C 314.410 358.479,313.600 359.007,313.600 359.213 C 313.600 359.420,312.987 359.845,312.239 360.158 C 311.490 360.471,310.766 361.076,310.631 361.502 C 310.483 361.970,309.734 362.473,308.747 362.769 C 307.728 363.074,307.034 363.550,306.908 364.030 C 306.769 364.560,306.356 364.800,305.581 364.800 C 304.789 364.800,304.204 365.152,303.611 365.985 C 303.072 366.742,302.274 367.262,301.403 367.426 C 300.628 367.571,299.781 368.075,299.442 368.592 C 299.092 369.127,298.251 369.614,297.405 369.773 C 296.382 369.965,295.856 370.327,295.592 371.022 C 295.313 371.754,294.923 372.000,294.043 372.000 C 292.340 372.000,291.587 372.383,291.179 373.455 C 290.885 374.229,290.533 374.400,289.237 374.400 C 287.935 374.400,287.503 374.613,286.800 375.600 C 286.100 376.583,285.663 376.800,284.382 376.800 C 283.156 376.800,282.677 377.016,282.163 377.800 C 281.803 378.350,281.145 378.800,280.700 378.800 C 279.142 378.800,276.864 379.712,276.682 380.409 C 276.544 380.938,275.896 381.180,274.047 381.395 C 272.139 381.616,271.429 381.892,270.840 382.640 C 270.303 383.323,269.685 383.600,268.702 383.600 C 266.798 383.600,264.863 384.335,264.377 385.242 C 264.064 385.828,263.526 386.000,262.012 386.000 C 259.694 386.000,258.047 386.555,257.331 387.578 C 256.910 388.178,256.163 388.344,253.371 388.459 C 250.289 388.585,249.846 388.703,249.135 389.581 C 248.420 390.464,247.932 390.591,244.270 390.845 C 239.505 391.175,240.216 391.001,239.211 392.080 C 238.456 392.891,237.943 392.973,232.696 393.115 C 227.441 393.257,226.848 393.351,225.032 394.334 L 223.065 395.400 199.832 395.400 C 178.002 395.400,174.073 395.252,174.571 394.448 C 174.989 393.770,171.577 393.208,166.836 393.172 C 162.483 393.139,161.845 393.045,161.128 392.328 C 160.012 391.212,158.312 390.800,154.825 390.800 C 152.137 390.800,151.734 390.695,150.725 389.728 C 149.731 388.776,149.225 388.637,146.152 388.476 C 143.339 388.328,142.665 388.169,142.520 387.617 C 142.281 386.703,140.185 386.000,137.699 386.000 C 136.023 386.000,135.609 385.859,135.406 385.220 C 135.121 384.320,134.545 384.091,131.794 383.781 C 130.327 383.616,129.612 383.306,129.089 382.609 C 128.522 381.853,127.856 381.605,125.802 381.385 C 123.802 381.171,123.173 380.945,122.992 380.375 C 122.739 379.579,121.776 379.160,119.897 379.030 C 119.118 378.976,118.423 378.570,117.915 377.874 C 117.337 377.080,116.786 376.800,115.799 376.800 C 114.079 376.800,113.200 376.452,113.200 375.771 C 113.200 375.051,111.926 374.400,110.515 374.400 C 109.752 374.400,109.032 374.005,108.325 373.200 C 107.615 372.390,106.899 372.000,106.125 372.000 C 105.351 372.000,104.636 371.610,103.925 370.800 C 103.288 370.073,102.482 369.600,101.882 369.600 C 101.281 369.600,100.647 369.226,100.269 368.649 C 99.913 368.105,99.079 367.590,98.323 367.447 C 97.421 367.276,96.783 366.815,96.319 365.998 C 95.798 365.083,95.352 364.800,94.433 364.800 C 93.651 364.800,93.083 364.528,92.814 364.026 C 92.586 363.600,91.784 363.029,91.033 362.757 C 90.281 362.486,89.475 361.844,89.242 361.332 C 88.996 360.793,88.468 360.400,87.989 360.400 C 87.534 360.400,86.765 359.980,86.281 359.468 C 85.796 358.955,84.813 358.280,84.095 357.968 C 83.378 357.656,82.690 357.083,82.567 356.696 C 82.444 356.308,81.829 355.725,81.200 355.400 C 80.571 355.075,79.942 354.447,79.801 354.004 C 79.661 353.562,79.294 353.200,78.987 353.200 C 78.679 353.200,77.875 352.660,77.200 352.000 C 76.525 351.340,75.825 350.800,75.645 350.800 C 75.464 350.800,74.854 350.395,74.289 349.900 C 73.724 349.405,72.491 348.370,71.549 347.600 C 70.607 346.830,68.724 345.075,67.363 343.700 C 66.003 342.325,64.735 341.199,64.545 341.197 C 64.355 341.196,63.893 340.656,63.519 339.997 C 63.144 339.339,62.559 338.800,62.219 338.800 C 61.878 338.800,61.600 338.632,61.600 338.426 C 61.600 338.221,60.567 337.006,59.305 335.726 C 58.042 334.447,56.226 332.500,55.268 331.400 C 54.311 330.300,53.004 328.809,52.364 328.087 C 51.724 327.364,51.200 326.521,51.200 326.213 C 51.200 325.906,50.855 325.544,50.433 325.411 C 50.012 325.277,49.487 324.652,49.267 324.021 C 49.048 323.391,48.511 322.762,48.074 322.623 C 47.637 322.485,47.167 321.922,47.029 321.372 C 46.891 320.822,46.347 320.176,45.820 319.936 C 45.293 319.696,44.753 319.067,44.620 318.538 C 44.487 318.009,43.934 317.189,43.389 316.716 C 42.845 316.243,42.400 315.515,42.400 315.099 C 42.400 314.270,41.755 313.490,40.757 313.112 C 40.403 312.978,40.009 312.347,39.882 311.710 C 39.738 310.990,39.262 310.374,38.625 310.084 C 37.906 309.757,37.600 309.305,37.600 308.572 C 37.600 307.912,37.158 307.140,36.400 306.475 C 35.740 305.896,35.200 305.108,35.200 304.725 C 35.200 304.341,34.660 303.475,34.000 302.800 C 33.334 302.118,32.800 301.141,32.800 300.602 C 32.800 300.068,32.524 299.399,32.186 299.116 C 30.633 297.811,30.400 297.483,30.400 296.604 C 30.400 295.244,29.997 294.400,29.347 294.400 C 28.704 294.400,28.000 292.824,28.000 291.383 C 28.000 290.801,27.612 290.164,27.020 289.776 C 26.327 289.322,25.962 288.620,25.777 287.385 C 25.596 286.181,25.224 285.446,24.583 285.026 C 23.930 284.598,23.569 283.868,23.377 282.588 C 23.115 280.840,22.366 279.600,21.571 279.600 C 21.367 279.600,21.200 278.874,21.200 277.986 C 21.200 276.290,20.256 274.400,19.409 274.400 C 19.081 274.400,18.836 273.487,18.697 271.748 C 18.521 269.560,18.309 268.949,17.482 268.248 C 16.663 267.555,16.443 266.933,16.273 264.841 C 16.103 262.745,15.884 262.130,15.063 261.441 C 14.193 260.711,14.041 260.212,13.915 257.657 C 13.783 254.998,13.664 254.637,12.684 253.923 C 11.637 253.160,11.600 253.003,11.600 249.348 C 11.600 245.885,11.519 245.487,10.656 244.681 C 9.820 243.901,9.680 243.307,9.434 239.520 C 9.123 234.736,8.720 232.926,7.819 232.255 C 7.324 231.887,7.171 230.460,7.019 224.800 C 6.782 215.977,6.282 211.590,5.462 211.131 C 4.942 210.840,4.844 209.426,4.815 201.766 C 4.797 196.804,4.764 192.622,4.743 192.472 C 4.586 191.346,4.871 189.597,5.181 189.788 C 6.058 190.330,6.849 184.561,7.017 176.400 C 7.078 173.430,7.145 170.415,7.164 169.700 C 7.188 168.843,7.399 168.400,7.785 168.400 C 8.601 168.400,9.185 165.931,9.363 161.732 C 9.445 159.790,9.532 157.795,9.556 157.300 C 9.580 156.805,9.852 156.400,10.161 156.400 C 11.014 156.400,11.600 154.201,11.600 151.000 C 11.600 148.344,11.694 148.020,12.800 146.863 C 13.913 145.698,14.000 145.392,14.000 142.631 C 14.000 139.978,14.089 139.626,14.823 139.393 C 15.873 139.059,16.400 137.662,16.400 135.207 C 16.400 133.568,16.565 133.147,17.462 132.493 C 18.353 131.844,18.554 131.340,18.709 129.360 C 18.858 127.463,19.088 126.840,19.886 126.186 C 20.604 125.598,20.938 124.845,21.093 123.471 C 21.228 122.271,21.575 121.382,22.035 121.061 C 22.921 120.440,23.600 118.755,23.600 117.174 C 23.600 116.528,23.767 116.000,23.971 116.000 C 24.765 116.000,25.515 114.761,25.776 113.020 C 25.951 111.854,26.251 111.200,26.610 111.200 C 27.309 111.200,27.846 110.227,28.205 108.312 C 28.375 107.405,28.851 106.597,29.441 106.210 C 30.095 105.782,30.400 105.205,30.400 104.400 C 30.400 103.582,30.707 103.017,31.396 102.566 C 31.969 102.190,32.570 101.254,32.810 100.363 C 33.039 99.511,33.566 98.632,33.981 98.410 C 34.396 98.188,34.859 97.420,35.010 96.703 C 35.162 95.986,35.807 94.915,36.443 94.323 C 37.079 93.730,37.600 92.870,37.600 92.413 C 37.600 91.906,37.969 91.440,38.544 91.221 C 39.147 90.992,39.575 90.423,39.731 89.646 C 39.865 88.977,40.520 87.943,41.187 87.348 C 41.854 86.754,42.400 85.966,42.400 85.598 C 42.400 85.230,42.850 84.723,43.400 84.473 C 43.979 84.209,44.400 83.682,44.400 83.222 C 44.400 82.785,45.030 81.797,45.800 81.027 C 46.570 80.257,47.200 79.385,47.200 79.089 C 47.200 78.793,47.740 78.151,48.400 77.663 C 49.060 77.175,49.600 76.582,49.600 76.345 C 49.600 76.108,50.590 74.970,51.800 73.817 C 53.010 72.664,54.000 71.452,54.000 71.124 C 54.000 70.797,54.450 70.323,55.000 70.073 C 55.550 69.822,56.000 69.397,56.000 69.129 C 56.000 68.587,56.519 68.022,62.472 62.081 C 68.392 56.173,68.581 56.000,69.101 56.000 C 69.360 56.000,69.769 55.631,70.010 55.181 C 70.251 54.730,70.891 54.194,71.431 53.988 C 71.972 53.783,72.587 53.161,72.797 52.607 C 73.008 52.053,73.451 51.600,73.781 51.600 C 74.111 51.600,74.676 51.150,75.037 50.600 C 75.397 50.050,75.870 49.600,76.087 49.600 C 76.304 49.600,77.617 48.448,79.005 47.040 C 80.534 45.488,81.999 44.376,82.723 44.217 C 83.385 44.072,84.002 43.634,84.106 43.238 C 84.213 42.828,84.817 42.417,85.515 42.277 C 86.261 42.128,86.837 41.713,86.997 41.210 C 87.141 40.757,87.891 40.122,88.665 39.799 C 89.439 39.475,90.167 38.848,90.283 38.405 C 90.441 37.800,90.827 37.600,91.837 37.600 C 92.840 37.600,93.353 37.338,93.856 36.571 C 94.227 36.005,95.221 35.265,96.065 34.927 C 96.909 34.589,97.600 34.066,97.600 33.764 C 97.600 33.254,98.193 33.014,100.197 32.711 C 100.635 32.644,101.230 32.097,101.519 31.495 C 101.960 30.574,102.296 30.400,103.630 30.400 C 104.931 30.400,105.299 30.221,105.669 29.408 C 106.127 28.402,106.388 28.263,108.682 27.802 C 109.414 27.655,110.063 27.232,110.195 26.815 C 110.431 26.071,111.515 25.615,113.069 25.605 C 113.547 25.602,114.478 25.060,115.138 24.400 C 116.027 23.511,116.712 23.200,117.778 23.200 C 118.925 23.200,119.310 22.997,119.673 22.200 C 119.981 21.524,120.464 21.190,121.164 21.170 C 123.730 21.097,125.200 20.434,125.200 19.351 C 125.200 18.967,125.729 18.800,126.940 18.800 C 129.113 18.800,131.200 18.098,131.200 17.368 C 131.200 16.788,131.883 16.573,134.722 16.260 C 135.896 16.131,136.748 15.742,137.402 15.035 C 138.233 14.139,138.690 14.000,140.807 14.000 C 143.313 14.000,144.643 13.553,145.467 12.435 C 145.811 11.969,146.909 11.742,149.606 11.579 C 152.777 11.388,153.368 11.238,153.942 10.477 C 154.526 9.703,155.067 9.576,158.403 9.428 C 162.315 9.254,164.020 8.837,165.059 7.798 C 165.388 7.469,166.049 7.194,166.529 7.188 C 177.327 7.035,181.023 6.634,182.168 5.489 C 182.534 5.124,183.769 4.893,185.657 4.838 C 187.265 4.791,188.615 4.718,188.657 4.676 C 189.310 4.021,216.664 4.898,217.818 5.611 M241.200 5.397 C 242.850 5.396,244.695 5.241,245.300 5.054 C 246.185 4.780,246.400 4.839,246.400 5.357 C 246.400 5.913,245.728 6.000,241.400 6.000 C 237.127 6.000,236.400 5.909,236.400 5.373 C 236.400 4.893,236.610 4.823,237.300 5.073 C 237.795 5.253,239.550 5.399,241.200 5.397 M254.367 8.255 C 254.458 8.335,253.063 8.400,251.267 8.400 C 249.470 8.400,248.000 8.234,248.000 8.031 C 248.000 7.694,253.964 7.904,254.367 8.255 M140.900 10.181 C 141.725 10.170,142.400 10.305,142.400 10.481 C 142.400 10.656,141.230 10.800,139.800 10.800 C 137.741 10.800,137.200 10.674,137.200 10.192 C 137.200 9.722,137.448 9.654,138.300 9.892 C 138.905 10.062,140.075 10.191,140.900 10.181 M258.800 10.191 C 259.790 10.186,261.033 10.096,261.563 9.991 C 262.126 9.879,262.596 10.008,262.696 10.300 C 262.822 10.670,262.106 10.799,259.933 10.795 C 256.714 10.789,255.200 10.511,255.200 9.926 C 255.200 9.702,255.568 9.680,256.100 9.873 C 256.595 10.053,257.810 10.196,258.800 10.191 M267.600 12.555 C 267.600 12.640,267.060 12.788,266.400 12.885 C 265.740 12.982,265.200 12.913,265.200 12.731 C 265.200 12.549,265.740 12.400,266.400 12.400 C 267.060 12.400,267.600 12.470,267.600 12.555 M274.000 14.973 C 274.330 15.047,273.475 15.128,272.100 15.154 C 270.725 15.179,269.600 15.064,269.600 14.897 C 269.600 14.616,272.637 14.668,274.000 14.973 M127.905 15.075 C 127.522 15.175,126.802 15.179,126.305 15.083 C 125.807 14.987,126.120 14.905,127.000 14.901 C 127.880 14.896,128.287 14.975,127.905 15.075 M278.705 17.475 C 278.322 17.575,277.602 17.579,277.105 17.483 C 276.607 17.387,276.920 17.305,277.800 17.301 C 278.680 17.296,279.087 17.375,278.705 17.475 M118.800 19.600 C 118.800 19.820,118.125 19.976,117.300 19.947 L 115.800 19.895 117.200 19.600 C 117.970 19.438,118.645 19.282,118.700 19.253 C 118.755 19.224,118.800 19.380,118.800 19.600 M284.000 19.844 C 284.000 19.930,283.370 20.000,282.600 20.000 C 281.830 20.000,281.200 19.856,281.200 19.680 C 281.200 19.504,281.830 19.434,282.600 19.524 C 283.370 19.614,284.000 19.758,284.000 19.844 M288.400 22.245 C 288.400 22.330,287.860 22.400,287.200 22.400 C 286.540 22.400,286.000 22.251,286.000 22.069 C 286.000 21.887,286.540 21.818,287.200 21.915 C 287.860 22.012,288.400 22.160,288.400 22.245 M292.705 24.675 C 292.322 24.775,291.602 24.779,291.105 24.683 C 290.607 24.587,290.920 24.505,291.800 24.501 C 292.680 24.496,293.087 24.575,292.705 24.675 M348.186 66.778 C 348.315 66.986,348.160 67.751,347.843 68.478 C 347.275 69.778,347.265 69.783,347.233 68.733 C 347.215 68.146,347.091 67.381,346.957 67.033 C 346.692 66.341,347.777 66.116,348.186 66.778 M50.795 69.300 C 50.782 70.464,50.268 71.600,49.753 71.600 C 49.185 71.600,48.956 69.577,49.467 69.067 C 49.917 68.616,50.800 68.771,50.795 69.300 M359.786 80.778 C 359.915 80.986,359.760 81.751,359.443 82.478 L 358.865 83.800 358.833 82.100 C 358.802 80.516,359.245 79.902,359.786 80.778 M41.200 82.200 C 41.200 82.970,41.020 83.600,40.800 83.600 C 40.580 83.600,40.398 83.375,40.395 83.100 C 40.392 82.825,40.281 82.195,40.148 81.700 C 39.971 81.038,40.078 80.800,40.553 80.800 C 41.026 80.800,41.200 81.177,41.200 82.200 M364.643 88.633 C 364.509 88.981,364.400 89.521,364.400 89.833 C 364.400 90.145,364.220 90.400,364.000 90.400 C 363.780 90.400,363.600 89.860,363.600 89.200 C 363.600 88.364,363.795 88.000,364.243 88.000 C 364.665 88.000,364.802 88.218,364.643 88.633 M34.200 91.100 C 34.120 91.705,34.035 92.380,34.010 92.600 C 33.984 92.820,33.727 92.460,33.438 91.800 C 32.861 90.484,32.957 90.000,33.796 90.000 C 34.164 90.000,34.297 90.364,34.200 91.100 M369.330 95.063 C 369.475 95.208,369.434 95.523,369.240 95.763 C 369.045 96.003,368.798 96.560,368.689 97.000 C 368.576 97.461,368.473 97.164,368.446 96.300 C 368.403 94.895,368.719 94.452,369.330 95.063 M31.713 97.300 C 31.155 98.342,30.475 97.506,30.899 96.300 C 31.353 95.010,31.358 95.008,31.615 96.000 C 31.757 96.550,31.802 97.135,31.713 97.300 M371.495 101.000 C 371.882 102.261,371.849 102.400,371.163 102.400 C 370.558 102.400,370.400 102.110,370.400 101.000 C 370.400 100.230,370.550 99.600,370.733 99.600 C 370.916 99.600,371.259 100.230,371.495 101.000 M27.200 103.480 C 27.200 105.101,26.666 104.889,26.244 103.100 C 26.048 102.269,26.133 102.000,26.592 102.000 C 27.026 102.000,27.200 102.423,27.200 103.480 M24.788 108.300 C 24.775 109.835,24.404 109.604,23.821 107.700 C 23.617 107.032,23.708 106.800,24.173 106.800 C 24.633 106.800,24.797 107.199,24.788 108.300 M376.179 107.700 C 375.596 109.604,375.225 109.835,375.212 108.300 C 375.203 107.199,375.367 106.800,375.827 106.800 C 376.292 106.800,376.383 107.032,376.179 107.700 M22.375 112.700 C 22.351 114.082,22.319 114.123,21.960 113.226 C 21.746 112.690,21.662 112.015,21.773 111.726 C 22.142 110.764,22.400 111.182,22.375 112.700 M378.786 111.943 C 378.778 112.084,378.514 112.650,378.200 113.200 L 377.628 114.200 377.614 112.713 C 377.603 111.551,377.732 111.276,378.200 111.455 C 378.530 111.582,378.794 111.801,378.786 111.943 M19.953 117.500 C 19.906 118.975,19.901 118.980,19.624 117.800 C 19.358 116.664,19.431 116.000,19.824 116.000 C 19.921 116.000,19.979 116.675,19.953 117.500 M380.899 116.300 C 380.979 116.465,380.824 117.410,380.555 118.400 L 380.064 120.200 380.032 118.100 C 380.004 116.277,380.443 115.365,380.899 116.300 M120.761 118.074 C 120.179 119.161,120.291 229.723,120.875 231.006 C 121.263 231.856,121.537 232.002,122.355 231.797 C 124.215 231.330,163.629 231.588,164.551 232.073 C 166.007 232.839,166.016 232.965,165.956 251.929 C 165.893 271.926,165.836 271.411,168.090 271.239 C 168.810 271.184,183.585 271.066,200.922 270.977 C 227.330 270.841,232.575 270.723,233.255 270.246 C 234.154 269.617,234.458 237.656,233.587 235.365 C 233.128 234.160,233.898 232.757,235.391 232.077 C 236.419 231.609,278.408 231.379,280.409 231.831 C 282.446 232.291,282.400 233.624,282.400 173.921 C 282.400 126.826,282.316 118.428,281.838 118.032 C 280.885 117.241,255.153 117.383,254.706 118.181 C 254.517 118.520,254.375 125.345,254.390 133.348 C 254.426 151.990,254.682 151.403,246.630 151.134 C 239.611 150.900,239.960 151.851,240.015 133.125 C 240.042 124.117,239.909 118.549,239.663 118.303 C 238.972 117.612,224.453 117.686,224.186 118.382 C 224.063 118.702,223.975 125.474,223.990 133.432 C 224.007 142.336,223.862 148.311,223.612 148.969 C 222.641 151.523,213.632 152.289,211.106 150.033 L 209.800 148.865 209.724 133.762 C 209.655 120.293,209.577 118.619,208.998 118.295 C 208.242 117.872,194.314 117.759,193.648 118.170 C 193.330 118.367,193.200 122.801,193.200 133.450 C 193.200 151.923,193.493 151.200,185.993 151.200 C 178.644 151.200,178.761 151.495,178.815 133.142 C 178.842 123.930,178.712 118.552,178.455 118.295 C 178.014 117.854,163.919 117.756,163.217 118.189 C 162.940 118.361,162.800 123.466,162.800 133.450 C 162.800 151.949,163.105 151.206,155.513 151.194 C 148.242 151.183,148.361 151.487,148.436 133.061 C 148.485 121.036,148.401 118.629,147.916 118.145 C 146.969 117.197,121.266 117.130,120.761 118.074 M17.582 122.500 L 17.565 124.200 16.988 122.600 C 16.283 120.641,16.282 120.800,17.000 120.800 C 17.442 120.800,17.595 121.248,17.582 122.500 M15.680 126.080 C 15.416 126.344,15.179 127.559,15.153 128.780 L 15.106 131.000 14.791 129.136 C 14.618 128.110,14.357 126.895,14.211 126.436 C 13.986 125.726,14.112 125.600,15.053 125.600 C 15.914 125.600,16.053 125.707,15.680 126.080 M12.823 135.261 L 12.647 137.800 12.416 135.800 C 12.289 134.700,12.053 133.590,11.890 133.334 C 11.622 132.911,12.321 132.359,12.800 132.615 C 12.910 132.674,12.920 133.864,12.823 135.261 M10.772 141.524 C 10.731 144.272,10.066 145.581,10.022 143.000 C 10.003 141.900,9.820 140.735,9.615 140.411 C 9.371 140.025,9.401 139.723,9.702 139.537 C 10.504 139.041,10.801 139.593,10.772 141.524 M390.149 141.300 C 389.827 143.400,389.600 143.731,389.600 142.099 C 389.600 141.421,389.491 140.581,389.357 140.233 C 389.197 139.816,389.336 139.600,389.762 139.600 C 390.298 139.600,390.365 139.893,390.149 141.300 M390.503 146.700 C 390.785 147.057,390.712 147.200,390.249 147.200 C 389.800 147.200,389.610 146.861,389.632 146.100 C 389.650 145.473,389.759 145.258,389.885 145.600 C 390.007 145.930,390.285 146.425,390.503 146.700 M8.400 150.600 C 8.400 152.690,8.257 154.400,8.083 154.400 C 7.909 154.400,7.749 153.185,7.728 151.700 C 7.706 150.215,7.493 148.505,7.254 147.900 C 6.869 146.925,6.909 146.800,7.610 146.800 C 8.341 146.800,8.400 147.083,8.400 150.600 M6.000 161.267 C 6.000 167.253,5.604 167.972,5.411 162.336 C 5.341 160.281,5.152 158.015,4.992 157.300 C 4.755 156.247,4.824 156.000,5.350 156.000 C 5.917 156.000,6.000 156.672,6.000 161.267 M3.621 168.100 C 3.610 168.265,3.600 172.630,3.600 177.800 C 3.600 186.244,3.533 187.200,2.944 187.200 C 2.377 187.200,2.334 186.918,2.629 185.100 C 3.070 182.386,3.097 171.969,2.670 169.465 C 2.384 167.786,2.427 167.548,2.991 167.665 C 3.349 167.739,3.633 167.935,3.621 168.100 M397.531 171.100 C 397.151 172.173,397.000 175.106,397.000 181.400 C 397.000 190.940,397.284 192.468,399.104 192.728 L 400.000 192.856 400.000 181.228 L 400.000 169.600 399.031 169.600 C 398.272 169.600,397.947 169.926,397.531 171.100 M398.103 207.700 C 397.424 208.558,397.000 213.529,397.002 220.600 C 397.005 228.382,397.422 230.400,399.031 230.400 L 400.000 230.400 400.000 218.800 C 400.000 206.611,399.816 205.533,398.103 207.700 M0.000 223.572 L 0.000 232.800 0.969 232.800 C 4.006 232.800,3.935 214.906,0.896 214.472 L 0.000 214.344 0.000 223.572 M6.000 239.000 C 6.000 243.328,5.913 244.000,5.357 244.000 C 4.839 244.000,4.780 243.785,5.054 242.900 C 5.489 241.495,5.502 236.080,5.073 234.900 C 4.823 234.210,4.893 234.000,5.373 234.000 C 5.909 234.000,6.000 234.727,6.000 239.000 M8.400 249.800 C 8.400 252.700,8.274 253.600,7.867 253.600 C 7.017 253.600,6.767 253.122,7.288 252.495 C 7.562 252.164,7.775 250.649,7.784 248.958 C 7.793 247.331,7.935 246.000,8.100 246.000 C 8.265 246.000,8.400 247.710,8.400 249.800 M390.101 257.700 C 390.215 259.185,390.149 260.400,389.954 260.400 C 389.759 260.400,389.600 259.110,389.600 257.533 C 389.600 254.014,389.824 254.089,390.101 257.700 M10.772 258.676 C 10.787 259.818,10.632 260.857,10.426 260.984 C 10.205 261.121,10.076 259.974,10.110 258.177 C 10.174 254.864,10.726 255.281,10.772 258.676 M12.746 265.100 C 12.689 267.898,12.521 267.587,12.314 264.300 C 12.248 263.255,12.331 262.400,12.497 262.400 C 12.664 262.400,12.775 263.615,12.746 265.100 M388.105 266.658 C 388.266 266.912,388.129 267.218,387.798 267.346 C 387.301 267.536,387.209 267.122,387.256 264.887 C 387.312 262.210,387.314 262.208,387.563 264.200 C 387.701 265.300,387.945 266.406,388.105 266.658 M15.200 272.000 C 15.200 273.891,15.070 274.400,14.586 274.400 C 14.103 274.400,14.060 274.235,14.386 273.626 C 14.614 273.201,14.800 272.121,14.800 271.226 C 14.800 270.332,14.890 269.600,15.000 269.600 C 15.110 269.600,15.200 270.680,15.200 272.000 M17.483 278.495 C 17.387 278.993,17.305 278.680,17.301 277.800 C 17.296 276.920,17.375 276.513,17.475 276.895 C 17.575 277.278,17.579 277.998,17.483 278.495 M19.994 283.100 C 19.989 284.474,19.880 284.834,19.600 284.400 C 19.089 283.609,19.089 281.200,19.600 281.200 C 19.820 281.200,19.997 282.055,19.994 283.100 M380.488 282.418 C 380.586 283.087,380.517 283.728,380.333 283.841 C 380.150 283.955,380.000 283.407,380.000 282.624 C 380.000 280.879,380.247 280.775,380.488 282.418 M22.368 287.700 C 22.351 288.635,22.247 289.130,22.137 288.800 C 21.268 286.189,21.246 286.000,21.821 286.000 C 22.240 286.000,22.391 286.468,22.368 287.700 M378.045 288.515 C 377.718 288.842,377.608 288.540,377.632 287.380 C 377.663 285.818,377.668 285.813,378.077 286.935 C 378.370 287.740,378.361 288.199,378.045 288.515 M24.800 291.800 C 24.800 292.570,24.620 293.200,24.400 293.200 C 24.180 293.200,23.998 292.975,23.995 292.700 C 23.992 292.425,23.881 291.795,23.748 291.300 C 23.571 290.638,23.678 290.400,24.153 290.400 C 24.626 290.400,24.800 290.777,24.800 291.800 M375.972 292.500 C 375.987 292.885,375.820 293.200,375.600 293.200 C 375.380 293.200,375.213 292.525,375.228 291.700 C 375.257 290.161,375.906 290.859,375.972 292.500 M27.200 296.600 C 27.200 297.370,27.020 298.000,26.800 298.000 C 26.356 298.000,26.245 295.888,26.667 295.467 C 27.127 295.006,27.200 295.161,27.200 296.600 M373.756 296.900 C 373.952 297.731,373.867 298.000,373.408 298.000 C 372.974 298.000,372.800 297.577,372.800 296.520 C 372.800 294.899,373.334 295.111,373.756 296.900 M29.600 301.400 C 29.600 302.423,29.426 302.800,28.953 302.800 C 28.478 302.800,28.371 302.562,28.548 301.900 C 28.681 301.405,28.792 300.775,28.795 300.500 C 28.798 300.225,28.980 300.000,29.200 300.000 C 29.420 300.000,29.600 300.630,29.600 301.400 M33.876 309.100 C 33.775 309.485,33.693 309.170,33.693 308.400 C 33.693 307.630,33.775 307.315,33.876 307.700 C 33.976 308.085,33.976 308.715,33.876 309.100 M366.847 308.860 C 367.078 309.311,366.998 309.592,366.593 309.747 C 366.132 309.924,366.007 309.645,366.032 308.487 C 366.049 307.669,366.163 307.270,366.286 307.600 C 366.408 307.930,366.660 308.497,366.847 308.860 M38.800 315.400 C 38.800 316.419,38.625 316.800,38.157 316.800 C 37.702 316.800,37.598 316.596,37.803 316.100 C 37.961 315.715,38.181 315.085,38.292 314.700 C 38.607 313.606,38.800 313.872,38.800 315.400 M46.000 325.000 C 46.000 325.978,45.819 326.400,45.400 326.400 C 44.699 326.400,44.655 326.032,45.190 324.626 C 45.727 323.215,46.000 323.341,46.000 325.000 M353.125 327.297 C 352.937 329.246,351.600 329.362,351.600 327.429 C 351.600 326.252,351.746 326.000,352.425 326.000 C 353.115 326.000,353.230 326.213,353.125 327.297 M281.105 382.675 C 280.722 382.775,280.002 382.779,279.505 382.683 C 279.007 382.587,279.320 382.505,280.200 382.501 C 281.080 382.496,281.487 382.575,281.105 382.675 M128.400 385.449 C 128.400 385.931,128.268 385.989,127.888 385.673 C 127.606 385.439,126.391 385.180,125.188 385.098 C 123.028 384.950,123.035 384.947,125.700 384.874 C 127.954 384.812,128.400 384.907,128.400 385.449 M273.905 385.075 C 273.522 385.175,272.802 385.179,272.305 385.083 C 271.807 384.987,272.120 384.905,273.000 384.901 C 273.880 384.896,274.287 384.975,273.905 385.075 M136.733 389.628 C 137.266 389.651,137.239 389.725,136.600 390.000 C 135.358 390.534,134.800 390.458,134.800 389.757 C 134.800 389.335,135.018 389.198,135.433 389.357 C 135.781 389.491,136.366 389.613,136.733 389.628 M264.936 389.823 C 264.804 390.166,264.435 390.346,264.116 390.223 C 263.796 390.100,263.324 389.982,263.067 389.960 C 262.810 389.938,263.050 389.776,263.600 389.600 C 265.086 389.124,265.197 389.143,264.936 389.823 M149.600 392.409 C 149.600 393.181,149.554 393.188,148.595 392.560 C 147.579 391.894,144.313 391.911,142.700 392.591 C 142.201 392.801,142.000 392.701,142.000 392.243 C 142.000 391.698,142.576 391.600,145.800 391.600 C 149.348 391.600,149.600 391.654,149.600 392.409 M258.000 392.232 C 258.000 392.746,257.758 392.802,256.700 392.532 C 255.985 392.349,254.275 392.222,252.900 392.248 C 251.525 392.275,250.400 392.140,250.400 391.948 C 250.400 391.757,252.110 391.600,254.200 391.600 C 257.396 391.600,258.000 391.700,258.000 392.232 M158.800 394.614 C 158.800 395.121,158.648 395.147,157.926 394.760 C 157.351 394.453,155.990 394.375,153.941 394.533 C 152.097 394.675,150.733 394.615,150.592 394.386 C 150.444 394.147,151.962 394.000,154.576 394.000 C 158.107 394.000,158.800 394.101,158.800 394.614 M248.662 394.272 C 248.287 394.646,241.200 394.673,241.200 394.300 C 241.200 394.135,242.940 394.000,245.067 394.000 C 247.193 394.000,248.811 394.122,248.662 394.272 M239.489 396.900 C 239.386 397.191,238.913 397.320,238.356 397.208 C 236.762 396.887,228.662 396.978,227.700 397.327 C 227.010 397.577,226.800 397.507,226.800 397.027 C 226.800 396.484,227.659 396.400,233.233 396.400 C 238.208 396.400,239.626 396.513,239.489 396.900 "
              stroke="none" fill="#145333" fill-rule="evenodd"></path>
        <path id="path4"
              d="M126.000 89.890 C 113.562 91.406,101.994 99.690,96.798 110.800 C 96.335 111.790,95.619 113.320,95.207 114.200 C 92.946 119.033,93.000 116.929,93.000 200.400 C 93.000 283.114,92.974 282.036,95.058 286.200 C 95.389 286.860,95.934 288.210,96.270 289.200 C 96.606 290.190,97.222 291.372,97.640 291.826 C 98.058 292.280,98.400 292.847,98.400 293.086 C 98.400 294.439,104.833 301.569,107.992 303.718 C 108.986 304.394,109.890 305.059,110.000 305.196 C 110.461 305.769,115.557 308.327,116.768 308.593 C 117.492 308.752,118.830 309.208,119.742 309.606 C 123.236 311.132,126.521 311.198,199.716 311.199 C 271.769 311.200,276.778 311.108,279.989 309.731 C 280.765 309.398,282.210 308.867,283.200 308.551 C 290.710 306.151,298.888 298.601,302.869 290.392 C 307.098 281.671,306.785 288.834,306.793 200.496 C 306.800 119.755,306.769 118.244,305.028 115.460 C 304.732 114.987,304.193 113.700,303.829 112.600 C 303.211 110.731,302.130 108.797,299.520 104.895 C 298.622 103.551,295.280 100.044,292.800 97.843 C 292.291 97.391,289.741 95.650,288.240 94.730 C 286.509 93.669,282.021 91.810,279.000 90.903 L 275.400 89.822 201.400 89.770 C 160.700 89.742,126.770 89.796,126.000 89.890 M274.000 91.205 C 281.306 92.470,282.708 92.807,283.216 93.419 C 283.478 93.735,284.379 94.179,285.218 94.405 C 289.815 95.643,297.279 102.406,300.611 108.352 C 301.058 109.148,301.685 110.250,302.006 110.800 C 302.655 111.913,304.141 115.943,305.024 118.987 C 305.517 120.688,305.600 132.416,305.600 200.267 C 305.600 278.065,305.532 282.753,304.391 284.200 C 304.218 284.420,303.768 285.680,303.391 287.000 C 303.015 288.320,302.479 289.670,302.200 290.000 C 301.921 290.330,301.305 291.320,300.831 292.200 C 298.149 297.173,290.715 304.454,287.041 305.705 C 286.359 305.938,285.371 306.459,284.846 306.864 C 284.321 307.269,283.676 307.600,283.413 307.600 C 283.149 307.600,281.239 308.182,279.167 308.893 L 275.400 310.185 199.800 310.193 C 127.657 310.200,124.118 310.167,122.400 309.473 C 121.410 309.074,119.610 308.475,118.400 308.143 C 117.190 307.811,115.448 307.103,114.529 306.569 C 113.610 306.036,112.666 305.600,112.432 305.600 C 111.773 305.600,105.989 301.197,104.656 299.681 C 104.405 299.396,103.811 298.766,103.336 298.281 C 101.859 296.776,99.529 293.527,98.975 292.201 C 98.684 291.506,98.171 290.708,97.834 290.428 C 97.497 290.148,97.105 289.263,96.963 288.460 C 96.821 287.657,96.264 286.107,95.726 285.016 C 94.126 281.769,94.029 276.966,94.015 200.400 C 94.001 124.816,94.115 118.911,95.643 115.917 C 96.098 115.025,96.696 113.553,96.971 112.647 C 97.247 111.741,97.952 110.300,98.537 109.444 C 99.121 108.588,99.600 107.645,99.600 107.348 C 99.600 107.050,99.960 106.582,100.400 106.307 C 100.840 106.032,101.202 105.626,101.203 105.404 C 101.210 104.702,108.814 97.200,109.519 97.200 C 109.723 97.200,110.569 96.660,111.399 96.001 C 112.229 95.341,113.558 94.626,114.354 94.411 C 115.149 94.196,116.215 93.728,116.723 93.371 C 117.231 93.014,120.291 92.215,123.523 91.595 L 129.400 90.467 199.400 90.438 C 267.565 90.409,269.521 90.429,274.000 91.205 M119.900 115.567 C 119.256 115.879,118.565 116.566,118.365 117.093 C 117.853 118.439,117.881 230.435,118.393 231.783 C 118.950 233.247,118.625 233.226,142.200 233.317 C 153.860 233.363,163.641 233.556,163.936 233.746 C 164.375 234.029,164.450 237.532,164.349 253.044 C 164.238 269.987,164.293 272.064,164.864 272.636 C 165.601 273.372,233.440 273.528,234.806 272.797 C 235.913 272.204,236.033 270.048,235.983 251.549 C 235.958 241.911,236.036 233.865,236.158 233.668 C 236.283 233.466,246.220 233.288,259.089 233.259 C 271.580 233.230,282.192 233.206,282.671 233.204 C 284.941 233.194,284.800 237.050,284.800 174.797 C 284.800 140.665,284.651 117.259,284.429 116.677 C 283.875 115.219,283.014 115.137,268.315 115.151 C 254.292 115.164,254.092 115.187,252.400 116.996 L 251.400 118.065 251.324 132.675 C 251.282 140.711,251.144 147.389,251.017 147.517 C 250.583 147.951,243.201 147.859,243.184 147.419 C 243.175 147.189,243.130 140.479,243.084 132.508 L 243.000 118.016 241.692 116.708 L 240.385 115.400 232.031 115.400 L 223.677 115.400 222.646 116.513 C 220.770 118.537,220.770 118.534,220.815 133.237 C 220.839 140.958,220.742 147.391,220.599 147.534 C 220.138 147.996,212.822 147.834,212.639 147.358 C 212.546 147.115,212.448 140.472,212.421 132.596 C 212.356 113.809,213.262 115.200,201.088 115.200 L 193.495 115.200 191.725 116.970 L 189.955 118.739 190.025 132.931 C 190.063 140.737,190.000 147.277,189.884 147.464 C 189.649 147.844,182.565 147.898,182.190 147.523 C 182.059 147.392,181.918 140.741,181.876 132.743 C 181.778 113.920,182.589 115.200,170.759 115.200 C 162.920 115.200,162.360 115.329,160.682 117.517 L 159.565 118.974 159.621 133.115 C 159.651 140.893,159.556 147.377,159.408 147.525 C 159.101 147.832,151.606 147.904,151.589 147.600 C 151.583 147.490,151.538 140.830,151.489 132.800 C 151.390 116.518,151.306 116.038,148.438 115.408 C 145.840 114.838,121.122 114.975,119.900 115.567 M148.641 116.730 C 150.411 118.209,150.443 118.524,150.375 133.630 C 150.296 150.958,149.853 149.600,155.592 149.600 C 159.154 149.600,159.532 149.524,160.359 148.644 L 161.256 147.688 161.215 133.265 L 161.174 118.842 162.287 117.624 L 163.400 116.406 170.692 116.370 C 178.005 116.334,180.336 116.803,180.414 118.327 C 180.422 118.477,180.435 124.981,180.445 132.780 C 180.466 150.586,180.117 149.600,186.404 149.600 C 191.930 149.600,191.600 150.645,191.600 133.124 L 191.600 118.757 192.715 117.564 L 193.830 116.371 201.307 116.353 C 209.063 116.334,211.150 116.792,211.219 118.527 C 211.229 118.787,211.221 125.401,211.201 133.224 C 211.157 150.684,210.796 149.600,216.647 149.600 C 220.137 149.600,220.514 149.522,221.418 148.618 L 222.400 147.636 222.400 133.093 L 222.400 118.550 223.506 117.490 L 224.612 116.431 231.938 116.382 C 239.608 116.331,240.128 116.438,241.319 118.299 C 241.495 118.574,241.626 125.200,241.610 133.024 C 241.574 150.667,241.214 149.600,247.198 149.600 C 253.203 149.600,252.800 150.796,252.800 132.977 L 252.800 118.461 253.836 117.231 L 254.871 116.000 268.641 116.000 L 282.412 116.000 283.207 117.300 C 284.386 119.229,284.269 230.702,283.086 231.886 C 282.422 232.550,280.749 232.614,259.019 232.800 C 246.175 232.910,235.556 233.110,235.421 233.245 C 235.287 233.380,235.137 241.968,235.088 252.331 C 235.013 268.466,234.914 271.257,234.400 271.766 C 233.605 272.555,166.249 272.809,165.467 272.027 C 165.120 271.680,165.037 266.819,165.145 253.178 C 165.275 236.680,165.223 234.695,164.636 233.798 L 163.982 232.800 142.467 232.800 C 125.886 232.800,120.796 232.685,120.270 232.300 C 119.443 231.694,119.182 118.329,120.004 116.792 C 120.624 115.633,147.261 115.576,148.641 116.730 "
              stroke="none" fill="#8cac9c" fill-rule="evenodd"></path>
    </g>
</svg>
